<?xml version="1.0" standalone="no"?>
 <!DOCTYPE svg PUBLIC "-//W3C//DTD SVG 1.1//EN" 
 "http://www.w3.org/Graphics/SVG/1.1/DTD/svg11.dtd"> 
<svg
  xmlns:svg="http://www.w3.org/2000/svg"
  xmlns="http://www.w3.org/2000/svg"
  xmlns:xlink="http://www.w3.org/1999/xlink"
  version="1.1"
  width="29.700220cm" height="21.000720cm" viewBox="0 0 116930 82680">
<title>SVG Picture created as InputNode-InputNode7.svg date 2021/10/13 17:33:16 </title>
  <desc>Picture generated by Eeschema-SVG </desc>
<g style="fill:#000000; fill-opacity:1;stroke:#000000; stroke-opacity:1;
stroke-linecap:round; stroke-linejoin:round;"
 transform="translate(0 0) scale(1 1)">
</g>
<g style="fill:#000000; fill-opacity:0.0; 
stroke:#000000; stroke-width:-10; stroke-opacity:1; 
stroke-linecap:round; stroke-linejoin:round;">
</g>
<g style="fill:#840000; fill-opacity:0.0; 
stroke:#840000; stroke-width:-10; stroke-opacity:1; 
stroke-linecap:round; stroke-linejoin:round;">
</g>
<g style="fill:#840000; fill-opacity:0.0; 
stroke:#840000; stroke-width:100; stroke-opacity:1; 
stroke-linecap:round; stroke-linejoin:round;">
</g>
<g style="fill:#840000; fill-opacity:0.0; 
stroke:#840000; stroke-width:60; stroke-opacity:1; 
stroke-linecap:round; stroke-linejoin:round;">
<rect x="69690" y="65360" width="42520" height="12600" rx="0" />
</g>
<g style="fill:#840000; fill-opacity:0.0; 
stroke:#840000; stroke-width:100; stroke-opacity:1; 
stroke-linecap:round; stroke-linejoin:round;">
</g>
<g style="fill:#840000; fill-opacity:0.0; 
stroke:#840000; stroke-width:60; stroke-opacity:1; 
stroke-linecap:round; stroke-linejoin:round;">
<rect x="3940" y="3940" width="109050" height="74800" rx="0" />
</g>
<g style="fill:#840000; fill-opacity:0.0; 
stroke:#840000; stroke-width:100; stroke-opacity:1; 
stroke-linecap:round; stroke-linejoin:round;">
</g>
<g style="fill:#840000; fill-opacity:0.0; 
stroke:#840000; stroke-width:60; stroke-opacity:1; 
stroke-linecap:round; stroke-linejoin:round;">
<rect x="4720" y="4720" width="107490" height="73240" rx="0" />
</g>
<g style="fill:#840000; fill-opacity:0.0; 
stroke:#840000; stroke-width:100; stroke-opacity:1; 
stroke-linecap:round; stroke-linejoin:round;">
</g>
<g style="fill:#840000; fill-opacity:0.0; 
stroke:#840000; stroke-width:60; stroke-opacity:1; 
stroke-linecap:round; stroke-linejoin:round;">
<path d="M23620 4720
L23620 3940
" />
</g>
<g style="fill:#840000; fill-opacity:0.0; 
stroke:#840000; stroke-width:100; stroke-opacity:1; 
stroke-linecap:round; stroke-linejoin:round;">
</g>
<g style="fill:#840000; fill-opacity:0.0; 
stroke:#840000; stroke-width:60; stroke-opacity:1; 
stroke-linecap:round; stroke-linejoin:round;">
<path d="M43310 4720
L43310 3940
" />
</g>
<g style="fill:#840000; fill-opacity:0.0; 
stroke:#840000; stroke-width:100; stroke-opacity:1; 
stroke-linecap:round; stroke-linejoin:round;">
</g>
<g style="fill:#840000; fill-opacity:0.0; 
stroke:#840000; stroke-width:60; stroke-opacity:1; 
stroke-linecap:round; stroke-linejoin:round;">
<path d="M62990 4720
L62990 3940
" />
</g>
<g style="fill:#840000; fill-opacity:0.0; 
stroke:#840000; stroke-width:100; stroke-opacity:1; 
stroke-linecap:round; stroke-linejoin:round;">
</g>
<g style="fill:#840000; fill-opacity:0.0; 
stroke:#840000; stroke-width:60; stroke-opacity:1; 
stroke-linecap:round; stroke-linejoin:round;">
<path d="M82680 4720
L82680 3940
" />
</g>
<g style="fill:#840000; fill-opacity:0.0; 
stroke:#840000; stroke-width:100; stroke-opacity:1; 
stroke-linecap:round; stroke-linejoin:round;">
</g>
<g style="fill:#840000; fill-opacity:0.0; 
stroke:#840000; stroke-width:60; stroke-opacity:1; 
stroke-linecap:round; stroke-linejoin:round;">
<path d="M102360 4720
L102360 3940
" />
</g>
<g style="fill:#840000; fill-opacity:0.0; 
stroke:#840000; stroke-width:100; stroke-opacity:1; 
stroke-linecap:round; stroke-linejoin:round;">
</g>
<g style="fill:#840000; fill-opacity:0.0; 
stroke:#840000; stroke-width:60; stroke-opacity:1; 
stroke-linecap:round; stroke-linejoin:round;">
<text x="13780" y="4580"
textLength="550" font-size="680" lengthAdjust="spacingAndGlyphs"
text-anchor="start" opacity="0">1</text>
<path d="M14190 4560
L13900 4560
" />
<path d="M14050 4560
L14050 4050
L14000 4120
L13950 4170
L13900 4190
" />
</g>
<g style="fill:#840000; fill-opacity:0.0; 
stroke:#840000; stroke-width:100; stroke-opacity:1; 
stroke-linecap:round; stroke-linejoin:round;">
</g>
<g style="fill:#840000; fill-opacity:0.0; 
stroke:#840000; stroke-width:60; stroke-opacity:1; 
stroke-linecap:round; stroke-linejoin:round;">
<text x="33460" y="4580"
textLength="550" font-size="680" lengthAdjust="spacingAndGlyphs"
text-anchor="start" opacity="0">2</text>
<path d="M33580 4090
L33610 4070
L33660 4050
L33780 4050
L33830 4070
L33850 4090
L33870 4140
L33870 4190
L33850 4260
L33560 4560
L33870 4560
" />
</g>
<g style="fill:#840000; fill-opacity:0.0; 
stroke:#840000; stroke-width:100; stroke-opacity:1; 
stroke-linecap:round; stroke-linejoin:round;">
</g>
<g style="fill:#840000; fill-opacity:0.0; 
stroke:#840000; stroke-width:60; stroke-opacity:1; 
stroke-linecap:round; stroke-linejoin:round;">
<text x="53150" y="4580"
textLength="550" font-size="680" lengthAdjust="spacingAndGlyphs"
text-anchor="start" opacity="0">3</text>
<path d="M53250 4050
L53560 4050
L53390 4240
L53470 4240
L53520 4260
L53540 4290
L53560 4340
L53560 4460
L53540 4510
L53520 4530
L53470 4560
L53320 4560
L53270 4530
L53250 4510
" />
</g>
<g style="fill:#840000; fill-opacity:0.0; 
stroke:#840000; stroke-width:100; stroke-opacity:1; 
stroke-linecap:round; stroke-linejoin:round;">
</g>
<g style="fill:#840000; fill-opacity:0.0; 
stroke:#840000; stroke-width:60; stroke-opacity:1; 
stroke-linecap:round; stroke-linejoin:round;">
<text x="72830" y="4580"
textLength="550" font-size="680" lengthAdjust="spacingAndGlyphs"
text-anchor="start" opacity="0">4</text>
<path d="M73200 4220
L73200 4560
" />
<path d="M73070 4020
L72950 4390
L73270 4390
" />
</g>
<g style="fill:#840000; fill-opacity:0.0; 
stroke:#840000; stroke-width:100; stroke-opacity:1; 
stroke-linecap:round; stroke-linejoin:round;">
</g>
<g style="fill:#840000; fill-opacity:0.0; 
stroke:#840000; stroke-width:60; stroke-opacity:1; 
stroke-linecap:round; stroke-linejoin:round;">
<text x="92520" y="4580"
textLength="550" font-size="680" lengthAdjust="spacingAndGlyphs"
text-anchor="start" opacity="0">5</text>
<path d="M92910 4050
L92670 4050
L92640 4290
L92670 4260
L92720 4240
L92840 4240
L92890 4260
L92910 4290
L92930 4340
L92930 4460
L92910 4510
L92890 4530
L92840 4560
L92720 4560
L92670 4530
L92640 4510
" />
</g>
<g style="fill:#840000; fill-opacity:0.0; 
stroke:#840000; stroke-width:100; stroke-opacity:1; 
stroke-linecap:round; stroke-linejoin:round;">
</g>
<g style="fill:#840000; fill-opacity:0.0; 
stroke:#840000; stroke-width:60; stroke-opacity:1; 
stroke-linecap:round; stroke-linejoin:round;">
<text x="112200" y="4580"
textLength="550" font-size="680" lengthAdjust="spacingAndGlyphs"
text-anchor="start" opacity="0">6</text>
<path d="M112570 4050
L112470 4050
L112420 4070
L112400 4090
L112350 4170
L112320 4260
L112320 4460
L112350 4510
L112370 4530
L112420 4560
L112520 4560
L112570 4530
L112590 4510
L112610 4460
L112610 4340
L112590 4290
L112570 4260
L112520 4240
L112420 4240
L112370 4260
L112350 4290
L112320 4340
" />
</g>
<g style="fill:#840000; fill-opacity:0.0; 
stroke:#840000; stroke-width:100; stroke-opacity:1; 
stroke-linecap:round; stroke-linejoin:round;">
</g>
<g style="fill:#840000; fill-opacity:0.0; 
stroke:#840000; stroke-width:60; stroke-opacity:1; 
stroke-linecap:round; stroke-linejoin:round;">
<path d="M23620 77960
L23620 78740
" />
</g>
<g style="fill:#840000; fill-opacity:0.0; 
stroke:#840000; stroke-width:100; stroke-opacity:1; 
stroke-linecap:round; stroke-linejoin:round;">
</g>
<g style="fill:#840000; fill-opacity:0.0; 
stroke:#840000; stroke-width:60; stroke-opacity:1; 
stroke-linecap:round; stroke-linejoin:round;">
<path d="M43310 77960
L43310 78740
" />
</g>
<g style="fill:#840000; fill-opacity:0.0; 
stroke:#840000; stroke-width:100; stroke-opacity:1; 
stroke-linecap:round; stroke-linejoin:round;">
</g>
<g style="fill:#840000; fill-opacity:0.0; 
stroke:#840000; stroke-width:60; stroke-opacity:1; 
stroke-linecap:round; stroke-linejoin:round;">
<path d="M62990 77960
L62990 78740
" />
</g>
<g style="fill:#840000; fill-opacity:0.0; 
stroke:#840000; stroke-width:100; stroke-opacity:1; 
stroke-linecap:round; stroke-linejoin:round;">
</g>
<g style="fill:#840000; fill-opacity:0.0; 
stroke:#840000; stroke-width:60; stroke-opacity:1; 
stroke-linecap:round; stroke-linejoin:round;">
<path d="M82680 77960
L82680 78740
" />
</g>
<g style="fill:#840000; fill-opacity:0.0; 
stroke:#840000; stroke-width:100; stroke-opacity:1; 
stroke-linecap:round; stroke-linejoin:round;">
</g>
<g style="fill:#840000; fill-opacity:0.0; 
stroke:#840000; stroke-width:60; stroke-opacity:1; 
stroke-linecap:round; stroke-linejoin:round;">
<path d="M102360 77960
L102360 78740
" />
</g>
<g style="fill:#840000; fill-opacity:0.0; 
stroke:#840000; stroke-width:100; stroke-opacity:1; 
stroke-linecap:round; stroke-linejoin:round;">
</g>
<g style="fill:#840000; fill-opacity:0.0; 
stroke:#840000; stroke-width:60; stroke-opacity:1; 
stroke-linecap:round; stroke-linejoin:round;">
<text x="13780" y="78600"
textLength="550" font-size="680" lengthAdjust="spacingAndGlyphs"
text-anchor="start" opacity="0">1</text>
<path d="M14190 78580
L13900 78580
" />
<path d="M14050 78580
L14050 78070
L14000 78140
L13950 78190
L13900 78210
" />
</g>
<g style="fill:#840000; fill-opacity:0.0; 
stroke:#840000; stroke-width:100; stroke-opacity:1; 
stroke-linecap:round; stroke-linejoin:round;">
</g>
<g style="fill:#840000; fill-opacity:0.0; 
stroke:#840000; stroke-width:60; stroke-opacity:1; 
stroke-linecap:round; stroke-linejoin:round;">
<text x="33460" y="78600"
textLength="550" font-size="680" lengthAdjust="spacingAndGlyphs"
text-anchor="start" opacity="0">2</text>
<path d="M33580 78110
L33610 78090
L33660 78070
L33780 78070
L33830 78090
L33850 78110
L33870 78160
L33870 78210
L33850 78280
L33560 78580
L33870 78580
" />
</g>
<g style="fill:#840000; fill-opacity:0.0; 
stroke:#840000; stroke-width:100; stroke-opacity:1; 
stroke-linecap:round; stroke-linejoin:round;">
</g>
<g style="fill:#840000; fill-opacity:0.0; 
stroke:#840000; stroke-width:60; stroke-opacity:1; 
stroke-linecap:round; stroke-linejoin:round;">
<text x="53150" y="78600"
textLength="550" font-size="680" lengthAdjust="spacingAndGlyphs"
text-anchor="start" opacity="0">3</text>
<path d="M53250 78070
L53560 78070
L53390 78260
L53470 78260
L53520 78280
L53540 78310
L53560 78360
L53560 78480
L53540 78530
L53520 78550
L53470 78580
L53320 78580
L53270 78550
L53250 78530
" />
</g>
<g style="fill:#840000; fill-opacity:0.0; 
stroke:#840000; stroke-width:100; stroke-opacity:1; 
stroke-linecap:round; stroke-linejoin:round;">
</g>
<g style="fill:#840000; fill-opacity:0.0; 
stroke:#840000; stroke-width:60; stroke-opacity:1; 
stroke-linecap:round; stroke-linejoin:round;">
<text x="72830" y="78600"
textLength="550" font-size="680" lengthAdjust="spacingAndGlyphs"
text-anchor="start" opacity="0">4</text>
<path d="M73200 78240
L73200 78580
" />
<path d="M73070 78040
L72950 78410
L73270 78410
" />
</g>
<g style="fill:#840000; fill-opacity:0.0; 
stroke:#840000; stroke-width:100; stroke-opacity:1; 
stroke-linecap:round; stroke-linejoin:round;">
</g>
<g style="fill:#840000; fill-opacity:0.0; 
stroke:#840000; stroke-width:60; stroke-opacity:1; 
stroke-linecap:round; stroke-linejoin:round;">
<text x="92520" y="78600"
textLength="550" font-size="680" lengthAdjust="spacingAndGlyphs"
text-anchor="start" opacity="0">5</text>
<path d="M92910 78070
L92670 78070
L92640 78310
L92670 78280
L92720 78260
L92840 78260
L92890 78280
L92910 78310
L92930 78360
L92930 78480
L92910 78530
L92890 78550
L92840 78580
L92720 78580
L92670 78550
L92640 78530
" />
</g>
<g style="fill:#840000; fill-opacity:0.0; 
stroke:#840000; stroke-width:100; stroke-opacity:1; 
stroke-linecap:round; stroke-linejoin:round;">
</g>
<g style="fill:#840000; fill-opacity:0.0; 
stroke:#840000; stroke-width:60; stroke-opacity:1; 
stroke-linecap:round; stroke-linejoin:round;">
<text x="112200" y="78600"
textLength="550" font-size="680" lengthAdjust="spacingAndGlyphs"
text-anchor="start" opacity="0">6</text>
<path d="M112570 78070
L112470 78070
L112420 78090
L112400 78110
L112350 78190
L112320 78280
L112320 78480
L112350 78530
L112370 78550
L112420 78580
L112520 78580
L112570 78550
L112590 78530
L112610 78480
L112610 78360
L112590 78310
L112570 78280
L112520 78260
L112420 78260
L112370 78280
L112350 78310
L112320 78360
" />
</g>
<g style="fill:#840000; fill-opacity:0.0; 
stroke:#840000; stroke-width:100; stroke-opacity:1; 
stroke-linecap:round; stroke-linejoin:round;">
</g>
<g style="fill:#840000; fill-opacity:0.0; 
stroke:#840000; stroke-width:60; stroke-opacity:1; 
stroke-linecap:round; stroke-linejoin:round;">
<path d="M3940 23620
L4720 23620
" />
</g>
<g style="fill:#840000; fill-opacity:0.0; 
stroke:#840000; stroke-width:100; stroke-opacity:1; 
stroke-linecap:round; stroke-linejoin:round;">
</g>
<g style="fill:#840000; fill-opacity:0.0; 
stroke:#840000; stroke-width:60; stroke-opacity:1; 
stroke-linecap:round; stroke-linejoin:round;">
<path d="M3940 43310
L4720 43310
" />
</g>
<g style="fill:#840000; fill-opacity:0.0; 
stroke:#840000; stroke-width:100; stroke-opacity:1; 
stroke-linecap:round; stroke-linejoin:round;">
</g>
<g style="fill:#840000; fill-opacity:0.0; 
stroke:#840000; stroke-width:60; stroke-opacity:1; 
stroke-linecap:round; stroke-linejoin:round;">
<path d="M3940 62990
L4720 62990
" />
</g>
<g style="fill:#840000; fill-opacity:0.0; 
stroke:#840000; stroke-width:100; stroke-opacity:1; 
stroke-linecap:round; stroke-linejoin:round;">
</g>
<g style="fill:#840000; fill-opacity:0.0; 
stroke:#840000; stroke-width:60; stroke-opacity:1; 
stroke-linecap:round; stroke-linejoin:round;">
<text x="4330" y="14030"
textLength="500" font-size="680" lengthAdjust="spacingAndGlyphs"
text-anchor="middle" opacity="0">A</text>
<path d="M4200 13860
L4450 13860
" />
<path d="M4160 14010
L4330 13500
L4500 14010
" />
</g>
<g style="fill:#840000; fill-opacity:0.0; 
stroke:#840000; stroke-width:100; stroke-opacity:1; 
stroke-linecap:round; stroke-linejoin:round;">
</g>
<g style="fill:#840000; fill-opacity:0.0; 
stroke:#840000; stroke-width:60; stroke-opacity:1; 
stroke-linecap:round; stroke-linejoin:round;">
<text x="4330" y="33710"
textLength="570" font-size="680" lengthAdjust="spacingAndGlyphs"
text-anchor="middle" opacity="0">B</text>
<path d="M4360 33420
L4430 33440
L4460 33470
L4480 33520
L4480 33590
L4460 33640
L4430 33660
L4390 33690
L4190 33690
L4190 33180
L4360 33180
L4410 33200
L4430 33220
L4460 33270
L4460 33320
L4430 33370
L4410 33390
L4360 33420
L4190 33420
" />
</g>
<g style="fill:#840000; fill-opacity:0.0; 
stroke:#840000; stroke-width:100; stroke-opacity:1; 
stroke-linecap:round; stroke-linejoin:round;">
</g>
<g style="fill:#840000; fill-opacity:0.0; 
stroke:#840000; stroke-width:60; stroke-opacity:1; 
stroke-linecap:round; stroke-linejoin:round;">
<text x="4330" y="53400"
textLength="570" font-size="680" lengthAdjust="spacingAndGlyphs"
text-anchor="middle" opacity="0">C</text>
<path d="M4480 53330
L4460 53350
L4390 53380
L4340 53380
L4260 53350
L4220 53300
L4190 53250
L4170 53160
L4170 53080
L4190 52990
L4220 52940
L4260 52890
L4340 52870
L4390 52870
L4460 52890
L4480 52910
" />
</g>
<g style="fill:#840000; fill-opacity:0.0; 
stroke:#840000; stroke-width:100; stroke-opacity:1; 
stroke-linecap:round; stroke-linejoin:round;">
</g>
<g style="fill:#840000; fill-opacity:0.0; 
stroke:#840000; stroke-width:60; stroke-opacity:1; 
stroke-linecap:round; stroke-linejoin:round;">
<text x="4330" y="73080"
textLength="570" font-size="680" lengthAdjust="spacingAndGlyphs"
text-anchor="middle" opacity="0">D</text>
<path d="M4190 73060
L4190 72550
L4310 72550
L4390 72570
L4430 72620
L4460 72670
L4480 72760
L4480 72840
L4460 72930
L4430 72980
L4390 73030
L4310 73060
L4190 73060
" />
</g>
<g style="fill:#840000; fill-opacity:0.0; 
stroke:#840000; stroke-width:100; stroke-opacity:1; 
stroke-linecap:round; stroke-linejoin:round;">
</g>
<g style="fill:#840000; fill-opacity:0.0; 
stroke:#840000; stroke-width:60; stroke-opacity:1; 
stroke-linecap:round; stroke-linejoin:round;">
<path d="M112990 23620
L112210 23620
" />
</g>
<g style="fill:#840000; fill-opacity:0.0; 
stroke:#840000; stroke-width:100; stroke-opacity:1; 
stroke-linecap:round; stroke-linejoin:round;">
</g>
<g style="fill:#840000; fill-opacity:0.0; 
stroke:#840000; stroke-width:60; stroke-opacity:1; 
stroke-linecap:round; stroke-linejoin:round;">
<path d="M112990 43310
L112210 43310
" />
</g>
<g style="fill:#840000; fill-opacity:0.0; 
stroke:#840000; stroke-width:100; stroke-opacity:1; 
stroke-linecap:round; stroke-linejoin:round;">
</g>
<g style="fill:#840000; fill-opacity:0.0; 
stroke:#840000; stroke-width:60; stroke-opacity:1; 
stroke-linecap:round; stroke-linejoin:round;">
<path d="M112990 62990
L112210 62990
" />
</g>
<g style="fill:#840000; fill-opacity:0.0; 
stroke:#840000; stroke-width:100; stroke-opacity:1; 
stroke-linecap:round; stroke-linejoin:round;">
</g>
<g style="fill:#840000; fill-opacity:0.0; 
stroke:#840000; stroke-width:60; stroke-opacity:1; 
stroke-linecap:round; stroke-linejoin:round;">
<text x="112600" y="14030"
textLength="500" font-size="680" lengthAdjust="spacingAndGlyphs"
text-anchor="middle" opacity="0">A</text>
<path d="M112470 13860
L112720 13860
" />
<path d="M112430 14010
L112600 13500
L112770 14010
" />
</g>
<g style="fill:#840000; fill-opacity:0.0; 
stroke:#840000; stroke-width:100; stroke-opacity:1; 
stroke-linecap:round; stroke-linejoin:round;">
</g>
<g style="fill:#840000; fill-opacity:0.0; 
stroke:#840000; stroke-width:60; stroke-opacity:1; 
stroke-linecap:round; stroke-linejoin:round;">
<text x="112600" y="33710"
textLength="570" font-size="680" lengthAdjust="spacingAndGlyphs"
text-anchor="middle" opacity="0">B</text>
<path d="M112630 33420
L112700 33440
L112730 33470
L112750 33520
L112750 33590
L112730 33640
L112700 33660
L112660 33690
L112460 33690
L112460 33180
L112630 33180
L112680 33200
L112700 33220
L112730 33270
L112730 33320
L112700 33370
L112680 33390
L112630 33420
L112460 33420
" />
</g>
<g style="fill:#840000; fill-opacity:0.0; 
stroke:#840000; stroke-width:100; stroke-opacity:1; 
stroke-linecap:round; stroke-linejoin:round;">
</g>
<g style="fill:#840000; fill-opacity:0.0; 
stroke:#840000; stroke-width:60; stroke-opacity:1; 
stroke-linecap:round; stroke-linejoin:round;">
<text x="112600" y="53400"
textLength="570" font-size="680" lengthAdjust="spacingAndGlyphs"
text-anchor="middle" opacity="0">C</text>
<path d="M112750 53330
L112730 53350
L112660 53380
L112610 53380
L112530 53350
L112490 53300
L112460 53250
L112440 53160
L112440 53080
L112460 52990
L112490 52940
L112530 52890
L112610 52870
L112660 52870
L112730 52890
L112750 52910
" />
</g>
<g style="fill:#840000; fill-opacity:0.0; 
stroke:#840000; stroke-width:100; stroke-opacity:1; 
stroke-linecap:round; stroke-linejoin:round;">
</g>
<g style="fill:#840000; fill-opacity:0.0; 
stroke:#840000; stroke-width:60; stroke-opacity:1; 
stroke-linecap:round; stroke-linejoin:round;">
<text x="112600" y="73080"
textLength="570" font-size="680" lengthAdjust="spacingAndGlyphs"
text-anchor="middle" opacity="0">D</text>
<path d="M112460 73060
L112460 72550
L112580 72550
L112660 72570
L112700 72620
L112730 72670
L112750 72760
L112750 72840
L112730 72930
L112700 72980
L112660 73030
L112580 73060
L112460 73060
" />
</g>
<g style="fill:#840000; fill-opacity:0.0; 
stroke:#840000; stroke-width:100; stroke-opacity:1; 
stroke-linecap:round; stroke-linejoin:round;">
</g>
<g style="fill:#840000; fill-opacity:0.0; 
stroke:#840000; stroke-width:60; stroke-opacity:1; 
stroke-linecap:round; stroke-linejoin:round;">
<text x="78740" y="76320"
textLength="2760" font-size="780" lengthAdjust="spacingAndGlyphs"
text-anchor="start" opacity="0">Date: </text>
<path d="M78910 76290
L78910 75700
L79050 75700
L79130 75730
L79190 75790
L79210 75840
L79240 75950
L79240 76040
L79210 76150
L79190 76210
L79130 76260
L79050 76290
L78910 76290
" />
<path d="M79750 76290
L79750 75980
L79720 75930
L79660 75900
L79550 75900
L79500 75930
" />
<path d="M79750 76260
L79690 76290
L79550 76290
L79500 76260
L79470 76210
L79470 76150
L79500 76100
L79550 76070
L79690 76070
L79750 76040
" />
<path d="M79950 75900
L80170 75900
" />
<path d="M80030 75700
L80030 76210
L80060 76260
L80110 76290
L80170 76290
" />
<path d="M80590 76260
L80540 76290
L80420 76290
L80370 76260
L80340 76210
L80340 75980
L80370 75930
L80420 75900
L80540 75900
L80590 75930
L80620 75980
L80620 76040
L80340 76100
" />
<path d="M80870 76240
L80900 76260
L80870 76290
L80840 76260
L80870 76240
L80870 76290
" />
<path d="M80870 75930
L80900 75950
L80870 75980
L80840 75950
L80870 75930
L80870 75980
" />
</g>
<g style="fill:#840000; fill-opacity:0.0; 
stroke:#840000; stroke-width:100; stroke-opacity:1; 
stroke-linecap:round; stroke-linejoin:round;">
</g>
<g style="fill:#840000; fill-opacity:0.0; 
stroke:#840000; stroke-width:60; stroke-opacity:1; 
stroke-linecap:round; stroke-linejoin:round;">
<path d="M69690 76580
L112210 76580
" />
</g>
<g style="fill:#840000; fill-opacity:0.0; 
stroke:#840000; stroke-width:100; stroke-opacity:1; 
stroke-linecap:round; stroke-linejoin:round;">
</g>
<g style="fill:#840000; fill-opacity:0.0; 
stroke:#840000; stroke-width:60; stroke-opacity:1; 
stroke-linecap:round; stroke-linejoin:round;">
<text x="70080" y="77420"
textLength="13520" font-size="780" lengthAdjust="spacingAndGlyphs"
text-anchor="start" opacity="0">KiCad E.D.A.  kicad (5.1.8)-1</text>
<path d="M70250 77390
L70250 76800
" />
<path d="M70580 77390
L70330 77050
" />
<path d="M70580 76800
L70250 77140
" />
<path d="M70840 77390
L70840 77000
" />
<path d="M70840 76800
L70810 76830
L70840 76860
L70860 76830
L70840 76800
L70840 76860
" />
<path d="M71450 77340
L71430 77360
L71340 77390
L71290 77390
L71200 77360
L71140 77310
L71120 77250
L71090 77140
L71090 77050
L71120 76940
L71140 76890
L71200 76830
L71290 76800
L71340 76800
L71430 76830
L71450 76860
" />
<path d="M71960 77390
L71960 77080
L71930 77030
L71880 77000
L71760 77000
L71710 77030
" />
<path d="M71960 77360
L71900 77390
L71760 77390
L71710 77360
L71680 77310
L71680 77250
L71710 77200
L71760 77170
L71900 77170
L71960 77140
" />
<path d="M72490 77390
L72490 76800
" />
<path d="M72490 77360
L72440 77390
L72320 77390
L72270 77360
L72240 77340
L72210 77280
L72210 77110
L72240 77050
L72270 77030
L72320 77000
L72440 77000
L72490 77030
" />
<path d="M73220 77080
L73420 77080
" />
<path d="M73500 77390
L73220 77390
L73220 76800
L73500 76800
" />
<path d="M73760 77340
L73790 77360
L73760 77390
L73730 77360
L73760 77340
L73760 77390
" />
<path d="M74040 77390
L74040 76800
L74180 76800
L74260 76830
L74320 76890
L74350 76940
L74380 77050
L74380 77140
L74350 77250
L74320 77310
L74260 77360
L74180 77390
L74040 77390
" />
<path d="M74630 77340
L74660 77360
L74630 77390
L74600 77360
L74630 77340
L74630 77390
" />
<path d="M74880 77220
L75160 77220
" />
<path d="M74830 77390
L75020 76800
L75220 77390
" />
<path d="M75420 77340
L75440 77360
L75420 77390
L75390 77360
L75420 77340
L75420 77390
" />
<path d="M76600 77390
L76600 76800
" />
<path d="M76650 77170
L76820 77390
" />
<path d="M76820 77000
L76600 77220
" />
<path d="M77070 77390
L77070 77000
" />
<path d="M77070 76800
L77040 76830
L77070 76860
L77100 76830
L77070 76800
L77070 76860
" />
<path d="M77610 77360
L77550 77390
L77440 77390
L77380 77360
L77350 77340
L77330 77280
L77330 77110
L77350 77050
L77380 77030
L77440 77000
L77550 77000
L77610 77030
" />
<path d="M78110 77390
L78110 77080
L78080 77030
L78030 77000
L77920 77000
L77860 77030
" />
<path d="M78110 77360
L78060 77390
L77920 77390
L77860 77360
L77830 77310
L77830 77250
L77860 77200
L77920 77170
L78060 77170
L78110 77140
" />
<path d="M78650 77390
L78650 76800
" />
<path d="M78650 77360
L78590 77390
L78480 77390
L78420 77360
L78390 77340
L78370 77280
L78370 77110
L78390 77050
L78420 77030
L78480 77000
L78590 77000
L78650 77030
" />
<path d="M79550 77620
L79520 77590
L79460 77500
L79430 77450
L79400 77360
L79380 77220
L79380 77110
L79400 76970
L79430 76890
L79460 76830
L79520 76750
L79550 76720
" />
<path d="M80050 76800
L79770 76800
L79740 77080
L79770 77050
L79830 77030
L79970 77030
L80020 77050
L80050 77080
L80080 77140
L80080 77280
L80050 77340
L80020 77360
L79970 77390
L79830 77390
L79770 77360
L79740 77340
" />
<path d="M80330 77340
L80360 77360
L80330 77390
L80300 77360
L80330 77340
L80330 77390
" />
<path d="M80920 77390
L80580 77390
" />
<path d="M80750 77390
L80750 76800
L80700 76890
L80640 76940
L80580 76970
" />
<path d="M81170 77340
L81200 77360
L81170 77390
L81150 77360
L81170 77340
L81170 77390
" />
<path d="M81540 77050
L81480 77030
L81460 77000
L81430 76940
L81430 76910
L81460 76860
L81480 76830
L81540 76800
L81650 76800
L81710 76830
L81740 76860
L81760 76910
L81760 76940
L81740 77000
L81710 77030
L81650 77050
L81540 77050
L81480 77080
L81460 77110
L81430 77170
L81430 77280
L81460 77340
L81480 77360
L81540 77390
L81650 77390
L81710 77360
L81740 77340
L81760 77280
L81760 77170
L81740 77110
L81710 77080
L81650 77050
" />
<path d="M81960 77620
L81990 77590
L82050 77500
L82070 77450
L82100 77360
L82130 77220
L82130 77110
L82100 76970
L82070 76890
L82050 76830
L81990 76750
L81960 76720
" />
<path d="M82410 77170
L82860 77170
" />
<path d="M83450 77390
L83110 77390
" />
<path d="M83280 77390
L83280 76800
L83230 76890
L83170 76940
L83110 76970
" />
</g>
<g style="fill:#840000; fill-opacity:0.0; 
stroke:#840000; stroke-width:100; stroke-opacity:1; 
stroke-linecap:round; stroke-linejoin:round;">
</g>
<g style="fill:#840000; fill-opacity:0.0; 
stroke:#840000; stroke-width:60; stroke-opacity:1; 
stroke-linecap:round; stroke-linejoin:round;">
<path d="M69690 75400
L112210 75400
" />
</g>
<g style="fill:#840000; fill-opacity:0.0; 
stroke:#840000; stroke-width:100; stroke-opacity:1; 
stroke-linecap:round; stroke-linejoin:round;">
</g>
<g style="fill:#840000; fill-opacity:0.0; 
stroke:#840000; stroke-width:120; stroke-opacity:1; 
stroke-linecap:round; stroke-linejoin:round;">
<text x="103540" y="76320"
textLength="2340" font-size="780" lengthAdjust="spacingAndGlyphs"
text-anchor="start" opacity="0">Rev: </text>
<path d="M104090 76290
L103890 76010
" />
<path d="M103750 76290
L103750 75700
L103980 75700
L104030 75730
L104060 75760
L104090 75810
L104090 75900
L104060 75950
L104030 75980
L103980 76010
L103750 76010
" />
<path d="M104570 76260
L104510 76290
L104400 76290
L104340 76260
L104320 76210
L104320 75980
L104340 75930
L104400 75900
L104510 75900
L104570 75930
L104600 75980
L104600 76040
L104320 76100
" />
<path d="M104790 75900
L104930 76290
L105070 75900
" />
<path d="M105300 76240
L105330 76260
L105300 76290
L105270 76260
L105300 76240
L105300 76290
" />
<path d="M105300 75930
L105330 75950
L105300 75980
L105270 75950
L105300 75930
L105300 75980
" />
</g>
<g style="fill:#840000; fill-opacity:0.0; 
stroke:#840000; stroke-width:100; stroke-opacity:1; 
stroke-linecap:round; stroke-linejoin:round;">
</g>
<g style="fill:#840000; fill-opacity:0.0; 
stroke:#840000; stroke-width:60; stroke-opacity:1; 
stroke-linecap:round; stroke-linejoin:round;">
<text x="70080" y="76320"
textLength="3780" font-size="780" lengthAdjust="spacingAndGlyphs"
text-anchor="start" opacity="0">Size: A4</text>
<path d="M70220 76260
L70300 76290
L70440 76290
L70500 76260
L70530 76240
L70550 76180
L70550 76120
L70530 76070
L70500 76040
L70440 76010
L70330 75980
L70270 75950
L70250 75930
L70220 75870
L70220 75810
L70250 75760
L70270 75730
L70330 75700
L70470 75700
L70550 75730
" />
<path d="M70810 76290
L70810 75900
" />
<path d="M70810 75700
L70780 75730
L70810 75760
L70840 75730
L70810 75700
L70810 75760
" />
<path d="M71030 75900
L71340 75900
L71030 76290
L71340 76290
" />
<path d="M71790 76260
L71730 76290
L71620 76290
L71570 76260
L71540 76210
L71540 75980
L71570 75930
L71620 75900
L71730 75900
L71790 75930
L71820 75980
L71820 76040
L71540 76100
" />
<path d="M72070 76240
L72100 76260
L72070 76290
L72040 76260
L72070 76240
L72070 76290
" />
<path d="M72070 75930
L72100 75950
L72070 75980
L72040 75950
L72070 75930
L72070 75980
" />
<path d="M72770 76120
L73060 76120
" />
<path d="M72720 76290
L72910 75700
L73110 76290
" />
<path d="M73560 75900
L73560 76290
" />
<path d="M73420 75670
L73280 76100
L73650 76100
" />
</g>
<g style="fill:#840000; fill-opacity:0.0; 
stroke:#840000; stroke-width:100; stroke-opacity:1; 
stroke-linecap:round; stroke-linejoin:round;">
</g>
<g style="fill:#840000; fill-opacity:0.0; 
stroke:#840000; stroke-width:60; stroke-opacity:1; 
stroke-linecap:round; stroke-linejoin:round;">
<text x="103540" y="77420"
textLength="3350" font-size="780" lengthAdjust="spacingAndGlyphs"
text-anchor="start" opacity="0">Id: 9/9</text>
<path d="M103710 77390
L103710 76800
" />
<path d="M104240 77390
L104240 76800
" />
<path d="M104240 77360
L104180 77390
L104070 77390
L104010 77360
L103990 77340
L103960 77280
L103960 77110
L103990 77050
L104010 77030
L104070 77000
L104180 77000
L104240 77030
" />
<path d="M104520 77340
L104550 77360
L104520 77390
L104490 77360
L104520 77340
L104520 77390
" />
<path d="M104520 77030
L104550 77050
L104520 77080
L104490 77050
L104520 77030
L104520 77080
" />
<path d="M105280 77390
L105390 77390
L105450 77360
L105480 77340
L105530 77250
L105560 77140
L105560 76910
L105530 76860
L105500 76830
L105450 76800
L105340 76800
L105280 76830
L105250 76860
L105220 76910
L105220 77050
L105250 77110
L105280 77140
L105340 77170
L105450 77170
L105500 77140
L105530 77110
L105560 77050
" />
<path d="M106230 76770
L105730 77530
" />
<path d="M106460 77390
L106570 77390
L106630 77360
L106660 77340
L106710 77250
L106740 77140
L106740 76910
L106710 76860
L106680 76830
L106630 76800
L106520 76800
L106460 76830
L106430 76860
L106400 76910
L106400 77050
L106430 77110
L106460 77140
L106520 77170
L106630 77170
L106680 77140
L106710 77110
L106740 77050
" />
</g>
<g style="fill:#840000; fill-opacity:0.0; 
stroke:#840000; stroke-width:100; stroke-opacity:1; 
stroke-linecap:round; stroke-linejoin:round;">
</g>
<g style="fill:#840000; fill-opacity:0.0; 
stroke:#840000; stroke-width:60; stroke-opacity:1; 
stroke-linecap:round; stroke-linejoin:round;">
<path d="M69690 73820
L112210 73820
" />
</g>
<g style="fill:#840000; fill-opacity:0.0; 
stroke:#840000; stroke-width:100; stroke-opacity:1; 
stroke-linecap:round; stroke-linejoin:round;">
</g>
<g style="fill:#840000; fill-opacity:0.0; 
stroke:#840000; stroke-width:160; stroke-opacity:1; 
stroke-linecap:round; stroke-linejoin:round;">
<text x="70080" y="74920"
textLength="3710" font-size="1050" lengthAdjust="spacingAndGlyphs"
text-anchor="start" opacity="0">Title: </text>
<path d="M70360 74090
L70810 74090
" />
<path d="M70480 74880
L70580 74090
" />
<path d="M70970 74880
L71040 74360
" />
<path d="M71070 74090
L71030 74130
L71060 74170
L71110 74130
L71070 74090
L71060 74170
" />
<path d="M71300 74360
L71600 74360
" />
<path d="M71450 74090
L71360 74770
L71390 74840
L71460 74880
L71540 74880
" />
<path d="M71910 74880
L71840 74840
L71820 74770
L71900 74090
" />
<path d="M72520 74840
L72440 74880
L72290 74880
L72220 74840
L72190 74770
L72230 74470
L72280 74390
L72360 74360
L72510 74360
L72580 74390
L72610 74470
L72600 74540
L72210 74620
" />
<path d="M72900 74810
L72930 74840
L72890 74880
L72860 74840
L72900 74810
L72890 74880
" />
<path d="M72950 74390
L72990 74430
L72940 74470
L72910 74430
L72950 74390
L72940 74470
" />
</g>
<g style="fill:#840000; fill-opacity:0.0; 
stroke:#840000; stroke-width:100; stroke-opacity:1; 
stroke-linecap:round; stroke-linejoin:round;">
</g>
<g style="fill:#840000; fill-opacity:0.0; 
stroke:#840000; stroke-width:60; stroke-opacity:1; 
stroke-linecap:round; stroke-linejoin:round;">
<text x="70080" y="73400"
textLength="8750" font-size="780" lengthAdjust="spacingAndGlyphs"
text-anchor="start" opacity="0">File: InputNode.sch</text>
<path d="M70440 73060
L70250 73060
" />
<path d="M70250 73370
L70250 72780
L70530 72780
" />
<path d="M70750 73370
L70750 72980
" />
<path d="M70750 72780
L70720 72810
L70750 72840
L70780 72810
L70750 72780
L70750 72840
" />
<path d="M71120 73370
L71060 73340
L71030 73290
L71030 72780
" />
<path d="M71570 73340
L71510 73370
L71400 73370
L71340 73340
L71310 73290
L71310 73060
L71340 73010
L71400 72980
L71510 72980
L71570 73010
L71590 73060
L71590 73120
L71310 73180
" />
<path d="M71850 73320
L71880 73340
L71850 73370
L71820 73340
L71850 73320
L71850 73370
" />
<path d="M71850 73010
L71880 73030
L71850 73060
L71820 73030
L71850 73010
L71850 73060
" />
<path d="M72580 73370
L72580 72780
" />
<path d="M72860 72980
L72860 73370
" />
<path d="M72860 73030
L72890 73010
L72940 72980
L73030 72980
L73080 73010
L73110 73060
L73110 73370
" />
<path d="M73390 72980
L73390 73570
" />
<path d="M73390 73010
L73450 72980
L73560 72980
L73620 73010
L73650 73030
L73670 73090
L73670 73260
L73650 73320
L73620 73340
L73560 73370
L73450 73370
L73390 73340
" />
<path d="M74180 72980
L74180 73370
" />
<path d="M73930 72980
L73930 73290
L73950 73340
L74010 73370
L74090 73370
L74150 73340
L74180 73320
" />
<path d="M74380 72980
L74600 72980
" />
<path d="M74460 72780
L74460 73290
L74490 73340
L74540 73370
L74600 73370
" />
<path d="M74800 73370
L74800 72780
L75130 73370
L75130 72780
" />
<path d="M75500 73370
L75440 73340
L75420 73320
L75390 73260
L75390 73090
L75420 73030
L75440 73010
L75500 72980
L75580 72980
L75640 73010
L75670 73030
L75700 73090
L75700 73260
L75670 73320
L75640 73340
L75580 73370
L75500 73370
" />
<path d="M76200 73370
L76200 72780
" />
<path d="M76200 73340
L76150 73370
L76030 73370
L75980 73340
L75950 73320
L75920 73260
L75920 73090
L75950 73030
L75980 73010
L76030 72980
L76150 72980
L76200 73010
" />
<path d="M76710 73340
L76650 73370
L76540 73370
L76480 73340
L76450 73290
L76450 73060
L76480 73010
L76540 72980
L76650 72980
L76710 73010
L76740 73060
L76740 73120
L76450 73180
" />
<path d="M76990 73320
L77020 73340
L76990 73370
L76960 73340
L76990 73320
L76990 73370
" />
<path d="M77240 73340
L77300 73370
L77410 73370
L77470 73340
L77490 73290
L77490 73260
L77470 73200
L77410 73180
L77330 73180
L77270 73150
L77240 73090
L77240 73060
L77270 73010
L77330 72980
L77410 72980
L77470 73010
" />
<path d="M78000 73340
L77940 73370
L77830 73370
L77780 73340
L77750 73320
L77720 73260
L77720 73090
L77750 73030
L77780 73010
L77830 72980
L77940 72980
L78000 73010
" />
<path d="M78250 73370
L78250 72780
" />
<path d="M78510 73370
L78510 73060
L78480 73010
L78420 72980
L78340 72980
L78280 73010
L78250 73030
" />
</g>
<g style="fill:#840000; fill-opacity:0.0; 
stroke:#840000; stroke-width:100; stroke-opacity:1; 
stroke-linecap:round; stroke-linejoin:round;">
</g>
<g style="fill:#840000; fill-opacity:0.0; 
stroke:#840000; stroke-width:60; stroke-opacity:1; 
stroke-linecap:round; stroke-linejoin:round;">
<path d="M69690 71460
L112210 71460
" />
</g>
<g style="fill:#840000; fill-opacity:0.0; 
stroke:#840000; stroke-width:100; stroke-opacity:1; 
stroke-linecap:round; stroke-linejoin:round;">
</g>
<g style="fill:#840000; fill-opacity:0.0; 
stroke:#840000; stroke-width:60; stroke-opacity:1; 
stroke-linecap:round; stroke-linejoin:round;">
<text x="70080" y="72340"
textLength="9440" font-size="780" lengthAdjust="spacingAndGlyphs"
text-anchor="start" opacity="0">Sheet: /InputNode7/</text>
<path d="M70220 72280
L70300 72310
L70440 72310
L70500 72280
L70530 72260
L70550 72200
L70550 72140
L70530 72090
L70500 72060
L70440 72030
L70330 72000
L70270 71970
L70250 71950
L70220 71890
L70220 71830
L70250 71780
L70270 71750
L70330 71720
L70470 71720
L70550 71750
" />
<path d="M70810 72310
L70810 71720
" />
<path d="M71060 72310
L71060 72000
L71030 71950
L70980 71920
L70890 71920
L70840 71950
L70810 71970
" />
<path d="M71570 72280
L71510 72310
L71400 72310
L71340 72280
L71310 72230
L71310 72000
L71340 71950
L71400 71920
L71510 71920
L71570 71950
L71590 72000
L71590 72060
L71310 72120
" />
<path d="M72070 72280
L72020 72310
L71900 72310
L71850 72280
L71820 72230
L71820 72000
L71850 71950
L71900 71920
L72020 71920
L72070 71950
L72100 72000
L72100 72060
L71820 72120
" />
<path d="M72270 71920
L72490 71920
" />
<path d="M72350 71720
L72350 72230
L72380 72280
L72440 72310
L72490 72310
" />
<path d="M72690 72260
L72720 72280
L72690 72310
L72660 72280
L72690 72260
L72690 72310
" />
<path d="M72690 71950
L72720 71970
L72690 72000
L72660 71970
L72690 71950
L72690 72000
" />
<path d="M73840 71690
L73340 72450
" />
<path d="M74040 72310
L74040 71720
" />
<path d="M74320 71920
L74320 72310
" />
<path d="M74320 71970
L74350 71950
L74400 71920
L74490 71920
L74540 71950
L74570 72000
L74570 72310
" />
<path d="M74850 71920
L74850 72510
" />
<path d="M74850 71950
L74910 71920
L75020 71920
L75080 71950
L75110 71970
L75130 72030
L75130 72200
L75110 72260
L75080 72280
L75020 72310
L74910 72310
L74850 72280
" />
<path d="M75640 71920
L75640 72310
" />
<path d="M75390 71920
L75390 72230
L75420 72280
L75470 72310
L75560 72310
L75610 72280
L75640 72260
" />
<path d="M75840 71920
L76060 71920
" />
<path d="M75920 71720
L75920 72230
L75950 72280
L76010 72310
L76060 72310
" />
<path d="M76260 72310
L76260 71720
L76600 72310
L76600 71720
" />
<path d="M76960 72310
L76900 72280
L76880 72260
L76850 72200
L76850 72030
L76880 71970
L76900 71950
L76960 71920
L77040 71920
L77100 71950
L77130 71970
L77160 72030
L77160 72200
L77130 72260
L77100 72280
L77040 72310
L76960 72310
" />
<path d="M77660 72310
L77660 71720
" />
<path d="M77660 72280
L77610 72310
L77490 72310
L77440 72280
L77410 72260
L77380 72200
L77380 72030
L77410 71970
L77440 71950
L77490 71920
L77610 71920
L77660 71950
" />
<path d="M78170 72280
L78110 72310
L78000 72310
L77940 72280
L77920 72230
L77920 72000
L77940 71950
L78000 71920
L78110 71920
L78170 71950
L78200 72000
L78200 72060
L77920 72120
" />
<path d="M78390 71720
L78790 71720
L78530 72310
" />
<path d="M79430 71690
L78930 72450
" />
</g>
<g style="fill:#840000; fill-opacity:0.0; 
stroke:#840000; stroke-width:100; stroke-opacity:1; 
stroke-linecap:round; stroke-linejoin:round;">
</g>
<g style="fill:#840000; fill-opacity:0.0; 
stroke:#840000; stroke-width:60; stroke-opacity:1; 
stroke-linecap:round; stroke-linejoin:round;">
<path d="M77560 75400
L77560 76580
" />
</g>
<g style="fill:#840000; fill-opacity:0.0; 
stroke:#840000; stroke-width:100; stroke-opacity:1; 
stroke-linecap:round; stroke-linejoin:round;">
</g>
<g style="fill:#840000; fill-opacity:0.0; 
stroke:#840000; stroke-width:60; stroke-opacity:1; 
stroke-linecap:round; stroke-linejoin:round;">
<path d="M102760 75400
L102760 77960
" />
</g>
<g style="fill:#840000; fill-opacity:0.0; 
stroke:#840000; stroke-width:0; stroke-opacity:1; 
stroke-linecap:round; stroke-linejoin:round;">
<g >
</g>
<g style="fill:#840000; fill-opacity:0.0; 
stroke:#840000; stroke-width:60; stroke-opacity:1; 
stroke-linecap:round; stroke-linejoin:round;">
<path d="M73500.3 36200 A200 200 0.0 0 0 73500.3 35800" />
<path d="M73500.3 37200 A200 200 0.0 0 0 73500.3 36800" />
<path d="M73500.3 38200 A200 200 0.0 0 0 73500.3 37800" />
<path d="M73500.3 39200 A200 200 0.0 0 0 73500.3 38800" />
<path style="fill:#840000; fill-opacity:0.0; 
stroke:#840000; stroke-width:60; stroke-opacity:1; 
stroke-linecap:round; stroke-linejoin:round;fill:none"
d="M 74000,36000
73700,36000
" /> 
<path style="fill:#840000; fill-opacity:0.0; 
stroke:#840000; stroke-width:60; stroke-opacity:1; 
stroke-linecap:round; stroke-linejoin:round;fill:none"
d="M 74000,37000
73700,37000
" /> 
<path style="fill:#840000; fill-opacity:0.0; 
stroke:#840000; stroke-width:60; stroke-opacity:1; 
stroke-linecap:round; stroke-linejoin:round;fill:none"
d="M 74000,38000
73700,38000
" /> 
<path style="fill:#840000; fill-opacity:0.0; 
stroke:#840000; stroke-width:60; stroke-opacity:1; 
stroke-linecap:round; stroke-linejoin:round;fill:none"
d="M 74000,39000
73700,39000
" /> 
<path d="M74000 39000
L75500 39000
" />
<text x="74750" y="38900"
textLength="540" font-size="660" lengthAdjust="spacingAndGlyphs"
text-anchor="middle" opacity="0">1</text>
<path d="M74890 38870
L74600 38870
" />
<path d="M74750 38870
L74750 38370
L74700 38440
L74650 38490
L74600 38510
" />
<path d="M74000 38000
L75500 38000
" />
<text x="74750" y="37900"
textLength="540" font-size="660" lengthAdjust="spacingAndGlyphs"
text-anchor="middle" opacity="0">2</text>
<path d="M74600 37420
L74630 37400
L74670 37370
L74790 37370
L74840 37400
L74860 37420
L74890 37470
L74890 37510
L74860 37590
L74580 37870
L74890 37870
" />
<path d="M74000 37000
L75500 37000
" />
<text x="74750" y="36900"
textLength="540" font-size="660" lengthAdjust="spacingAndGlyphs"
text-anchor="middle" opacity="0">3</text>
<path d="M74580 36370
L74890 36370
L74720 36560
L74790 36560
L74840 36590
L74860 36610
L74890 36660
L74890 36780
L74860 36820
L74840 36850
L74790 36870
L74650 36870
L74600 36850
L74580 36820
" />
<path d="M74000 36000
L75500 36000
" />
<text x="74750" y="35900"
textLength="540" font-size="660" lengthAdjust="spacingAndGlyphs"
text-anchor="middle" opacity="0">4</text>
<path d="M74840 35540
L74840 35870
" />
<path d="M74720 35350
L74600 35700
L74910 35700
" />
</g>
<g style="fill:#008484; fill-opacity:0.0; 
stroke:#008484; stroke-width:60; stroke-opacity:1; 
stroke-linecap:round; stroke-linejoin:round;">
<text x="72760" y="37980"
textLength="920" font-size="660" lengthAdjust="spacingAndGlyphs"
text-anchor="middle" opacity="0">J8</text>
<path d="M72590 37450
L72590 37810
L72560 37880
L72520 37930
L72450 37950
L72400 37950
" />
<path d="M72900 37670
L72850 37640
L72830 37620
L72800 37570
L72800 37550
L72830 37500
L72850 37480
L72900 37450
L72990 37450
L73040 37480
L73060 37500
L73090 37550
L73090 37570
L73060 37620
L73040 37640
L72990 37670
L72900 37670
L72850 37690
L72830 37710
L72800 37760
L72800 37860
L72830 37900
L72850 37930
L72900 37950
L72990 37950
L73040 37930
L73060 37900
L73090 37860
L73090 37760
L73060 37710
L73040 37690
L72990 37670
" />
<text x="69390" y="37070"
textLength="7660" font-size="660" lengthAdjust="spacingAndGlyphs"
text-anchor="middle" opacity="0">Conn_01x04_Female</text>
<path d="M65990 36990
L65970 37020
L65900 37040
L65850 37040
L65780 37020
L65730 36970
L65710 36920
L65680 36830
L65680 36760
L65710 36660
L65730 36610
L65780 36570
L65850 36540
L65900 36540
L65970 36570
L65990 36590
" />
<path d="M66280 37040
L66230 37020
L66210 36990
L66180 36950
L66180 36800
L66210 36760
L66230 36730
L66280 36710
L66350 36710
L66400 36730
L66420 36760
L66440 36800
L66440 36950
L66420 36990
L66400 37020
L66350 37040
L66280 37040
" />
<path d="M66660 36710
L66660 37040
" />
<path d="M66660 36760
L66680 36730
L66730 36710
L66800 36710
L66850 36730
L66870 36780
L66870 37040
" />
<path d="M67110 36710
L67110 37040
" />
<path d="M67110 36760
L67140 36730
L67180 36710
L67250 36710
L67300 36730
L67330 36780
L67330 37040
" />
<path d="M67440 37090
L67830 37090
" />
<path d="M68040 36540
L68090 36540
L68140 36570
L68160 36590
L68180 36640
L68210 36730
L68210 36850
L68180 36950
L68160 36990
L68140 37020
L68090 37040
L68040 37040
L67990 37020
L67970 36990
L67940 36950
L67920 36850
L67920 36730
L67940 36640
L67970 36590
L67990 36570
L68040 36540
" />
<path d="M68680 37040
L68400 37040
" />
<path d="M68540 37040
L68540 36540
L68490 36610
L68440 36660
L68400 36680
" />
<path d="M68850 37040
L69110 36710
" />
<path d="M68850 36710
L69110 37040
" />
<path d="M69400 36540
L69440 36540
L69490 36570
L69520 36590
L69540 36640
L69560 36730
L69560 36850
L69540 36950
L69520 36990
L69490 37020
L69440 37040
L69400 37040
L69350 37020
L69330 36990
L69300 36950
L69280 36850
L69280 36730
L69300 36640
L69330 36590
L69350 36570
L69400 36540
" />
<path d="M69990 36710
L69990 37040
" />
<path d="M69870 36520
L69750 36870
L70060 36870
" />
<path d="M70140 37090
L70520 37090
" />
<path d="M70800 36780
L70640 36780
" />
<path d="M70640 37040
L70640 36540
L70870 36540
" />
<path d="M71250 37020
L71210 37040
L71110 37040
L71060 37020
L71040 36970
L71040 36780
L71060 36730
L71110 36710
L71210 36710
L71250 36730
L71280 36780
L71280 36830
L71040 36870
" />
<path d="M71490 37040
L71490 36710
" />
<path d="M71490 36760
L71520 36730
L71560 36710
L71640 36710
L71680 36730
L71710 36780
L71710 37040
" />
<path d="M71710 36780
L71730 36730
L71780 36710
L71850 36710
L71900 36730
L71920 36780
L71920 37040
" />
<path d="M72370 37040
L72370 36780
L72350 36730
L72300 36710
L72210 36710
L72160 36730
" />
<path d="M72370 37020
L72330 37040
L72210 37040
L72160 37020
L72140 36970
L72140 36920
L72160 36870
L72210 36850
L72330 36850
L72370 36830
" />
<path d="M72680 37040
L72640 37020
L72610 36970
L72610 36540
" />
<path d="M73060 37020
L73020 37040
L72920 37040
L72870 37020
L72850 36970
L72850 36780
L72870 36730
L72920 36710
L73020 36710
L73060 36730
L73090 36780
L73090 36830
L72850 36870
" />
</g>
</g>
<g style="fill:#008484; fill-opacity:0.0; 
stroke:#008484; stroke-width:0; stroke-opacity:1; 
stroke-linecap:round; stroke-linejoin:round;">
<g >
</g>
<g style="fill:#840000; fill-opacity:0.0; 
stroke:#840000; stroke-width:0; stroke-opacity:1; 
stroke-linecap:round; stroke-linejoin:round;">
</g>
<g style="fill:#840000; fill-opacity:0.0; 
stroke:#840000; stroke-width:60; stroke-opacity:1; 
stroke-linecap:round; stroke-linejoin:round;">
<path style="fill:#840000; fill-opacity:0.0; 
stroke:#840000; stroke-width:60; stroke-opacity:1; 
stroke-linecap:round; stroke-linejoin:round;fill:none"
d="M 75500,42000
75500,42500
76000,42500
75500,43000
75000,42500
75500,42500
" /> 
</g>
<g style="fill:#008484; fill-opacity:0.0; 
stroke:#008484; stroke-width:60; stroke-opacity:1; 
stroke-linecap:round; stroke-linejoin:round;">
<text x="75550" y="44000"
textLength="1580" font-size="660" lengthAdjust="spacingAndGlyphs"
text-anchor="middle" opacity="0">GND</text>
<path d="M75160 43500
L75120 43470
L75050 43470
L74970 43500
L74930 43540
L74900 43590
L74880 43690
L74880 43760
L74900 43850
L74930 43900
L74970 43950
L75050 43970
L75090 43970
L75160 43950
L75190 43920
L75190 43760
L75090 43760
" />
<path d="M75400 43970
L75400 43470
L75690 43970
L75690 43470
" />
<path d="M75930 43970
L75930 43470
L76050 43470
L76120 43500
L76160 43540
L76190 43590
L76210 43690
L76210 43760
L76190 43850
L76160 43900
L76120 43950
L76050 43970
L75930 43970
" />
</g>
</g>
<g style="fill:#008484; fill-opacity:0.0; 
stroke:#008484; stroke-width:0; stroke-opacity:1; 
stroke-linecap:round; stroke-linejoin:round;">
<g >
</g>
<g style="fill:#840000; fill-opacity:0.0; 
stroke:#840000; stroke-width:0; stroke-opacity:1; 
stroke-linecap:round; stroke-linejoin:round;">
</g>
<g style="fill:#840000; fill-opacity:0.0; 
stroke:#840000; stroke-width:100; stroke-opacity:1; 
stroke-linecap:round; stroke-linejoin:round;">
<rect x="75100" y="39500" width="800" height="2000" rx="0" />
</g>
<g style="fill:#840000; fill-opacity:0.0; 
stroke:#840000; stroke-width:60; stroke-opacity:1; 
stroke-linecap:round; stroke-linejoin:round;">
<path d="M75500 39500
L75500 39000
" />
<path d="M75500 41500
L75500 42000
" />
</g>
<g style="fill:#008484; fill-opacity:0.0; 
stroke:#008484; stroke-width:60; stroke-opacity:1; 
stroke-linecap:round; stroke-linejoin:round;">
<text x="76720" y="40310"
textLength="1040" font-size="660" lengthAdjust="spacingAndGlyphs"
text-anchor="middle" opacity="0">R8</text>
<path d="M76630 40280
L76470 40040
" />
<path d="M76350 40280
L76350 39780
L76540 39780
L76580 39810
L76610 39830
L76630 39880
L76630 39950
L76610 40000
L76580 40020
L76540 40040
L76350 40040
" />
<path d="M76920 40000
L76870 39970
L76850 39950
L76820 39900
L76820 39880
L76850 39830
L76870 39810
L76920 39780
L77010 39780
L77060 39810
L77080 39830
L77110 39880
L77110 39900
L77080 39950
L77060 39970
L77010 40000
L76920 40000
L76870 40020
L76850 40040
L76820 40090
L76820 40190
L76850 40230
L76870 40260
L76920 40280
L77010 40280
L77060 40260
L77080 40230
L77110 40190
L77110 40090
L77080 40040
L77060 40020
L77010 40000
" />
<text x="76950" y="41220"
textLength="1510" font-size="660" lengthAdjust="spacingAndGlyphs"
text-anchor="middle" opacity="0">10K</text>
<path d="M76600 41190
L76310 41190
" />
<path d="M76460 41190
L76460 40690
L76410 40760
L76360 40810
L76310 40830
" />
<path d="M76910 40690
L76960 40690
L77000 40720
L77030 40740
L77050 40790
L77080 40880
L77080 41000
L77050 41100
L77030 41140
L77000 41170
L76960 41190
L76910 41190
L76860 41170
L76840 41140
L76810 41100
L76790 41000
L76790 40880
L76810 40790
L76840 40740
L76860 40720
L76910 40690
" />
<path d="M77290 41190
L77290 40690
" />
<path d="M77580 41190
L77360 40910
" />
<path d="M77580 40690
L77290 40980
" />
</g>
</g>
<g style="fill:#008484; fill-opacity:0.0; 
stroke:#008484; stroke-width:0; stroke-opacity:1; 
stroke-linecap:round; stroke-linejoin:round;">
<g >
</g>
<g style="fill:#840000; fill-opacity:0.0; 
stroke:#840000; stroke-width:0; stroke-opacity:1; 
stroke-linecap:round; stroke-linejoin:round;">
</g>
<g style="fill:#840000; fill-opacity:0.0; 
stroke:#840000; stroke-width:60; stroke-opacity:1; 
stroke-linecap:round; stroke-linejoin:round;">
<path style="fill:#840000; fill-opacity:0.0; 
stroke:#840000; stroke-width:60; stroke-opacity:1; 
stroke-linecap:round; stroke-linejoin:round;fill:none"
d="M 76700,32000
77000,31500
" /> 
<path style="fill:#840000; fill-opacity:0.0; 
stroke:#840000; stroke-width:60; stroke-opacity:1; 
stroke-linecap:round; stroke-linejoin:round;fill:none"
d="M 77000,32500
77000,31500
" /> 
<path style="fill:#840000; fill-opacity:0.0; 
stroke:#840000; stroke-width:60; stroke-opacity:1; 
stroke-linecap:round; stroke-linejoin:round;fill:none"
d="M 77000,31500
77300,32000
" /> 
</g>
<g style="fill:#008484; fill-opacity:0.0; 
stroke:#008484; stroke-width:60; stroke-opacity:1; 
stroke-linecap:round; stroke-linejoin:round;">
<text x="77150" y="31040"
textLength="1490" font-size="660" lengthAdjust="spacingAndGlyphs"
text-anchor="middle" opacity="0">VDD</text>
<path d="M76480 30510
L76650 31010
L76810 30510
" />
<path d="M76980 31010
L76980 30510
L77100 30510
L77170 30540
L77220 30580
L77240 30630
L77260 30730
L77260 30800
L77240 30890
L77220 30940
L77170 30990
L77100 31010
L76980 31010
" />
<path d="M77480 31010
L77480 30510
L77600 30510
L77670 30540
L77720 30580
L77740 30630
L77760 30730
L77760 30800
L77740 30890
L77720 30940
L77670 30990
L77600 31010
L77480 31010
" />
</g>
</g>
<g style="fill:#008484; fill-opacity:0.0; 
stroke:#008484; stroke-width:0; stroke-opacity:1; 
stroke-linecap:round; stroke-linejoin:round;">
<g >
</g>
<g style="fill:#840000; fill-opacity:0.0; 
stroke:#840000; stroke-width:0; stroke-opacity:1; 
stroke-linecap:round; stroke-linejoin:round;">
</g>
<g style="fill:#840000; fill-opacity:0.0; 
stroke:#840000; stroke-width:60; stroke-opacity:1; 
stroke-linecap:round; stroke-linejoin:round;">
<path style="fill:#840000; fill-opacity:0.0; 
stroke:#840000; stroke-width:60; stroke-opacity:1; 
stroke-linecap:round; stroke-linejoin:round;fill:none"
d="M 40700,36000
41000,35500
" /> 
<path style="fill:#840000; fill-opacity:0.0; 
stroke:#840000; stroke-width:60; stroke-opacity:1; 
stroke-linecap:round; stroke-linejoin:round;fill:none"
d="M 41000,36500
41000,35500
" /> 
<path style="fill:#840000; fill-opacity:0.0; 
stroke:#840000; stroke-width:60; stroke-opacity:1; 
stroke-linecap:round; stroke-linejoin:round;fill:none"
d="M 41000,35500
41300,36000
" /> 
</g>
<g style="fill:#008484; fill-opacity:0.0; 
stroke:#008484; stroke-width:60; stroke-opacity:1; 
stroke-linecap:round; stroke-linejoin:round;">
<text x="41150" y="35040"
textLength="1490" font-size="660" lengthAdjust="spacingAndGlyphs"
text-anchor="middle" opacity="0">VDD</text>
<path d="M40480 34510
L40650 35010
L40810 34510
" />
<path d="M40980 35010
L40980 34510
L41100 34510
L41170 34540
L41220 34580
L41240 34630
L41260 34730
L41260 34800
L41240 34890
L41220 34940
L41170 34990
L41100 35010
L40980 35010
" />
<path d="M41480 35010
L41480 34510
L41600 34510
L41670 34540
L41720 34580
L41740 34630
L41760 34730
L41760 34800
L41740 34890
L41720 34940
L41670 34990
L41600 35010
L41480 35010
" />
</g>
</g>
<g style="fill:#008484; fill-opacity:0.0; 
stroke:#008484; stroke-width:0; stroke-opacity:1; 
stroke-linecap:round; stroke-linejoin:round;">
<g >
</g>
<g style="fill:#840000; fill-opacity:0.0; 
stroke:#840000; stroke-width:0; stroke-opacity:1; 
stroke-linecap:round; stroke-linejoin:round;">
</g>
<g style="fill:#840000; fill-opacity:0.0; 
stroke:#840000; stroke-width:60; stroke-opacity:1; 
stroke-linecap:round; stroke-linejoin:round;">
<path style="fill:#840000; fill-opacity:0.0; 
stroke:#840000; stroke-width:60; stroke-opacity:1; 
stroke-linecap:round; stroke-linejoin:round;fill:none"
d="M 41000,39500
41000,40000
41500,40000
41000,40500
40500,40000
41000,40000
" /> 
</g>
<g style="fill:#008484; fill-opacity:0.0; 
stroke:#008484; stroke-width:60; stroke-opacity:1; 
stroke-linecap:round; stroke-linejoin:round;">
<text x="41050" y="41500"
textLength="1580" font-size="660" lengthAdjust="spacingAndGlyphs"
text-anchor="middle" opacity="0">GND</text>
<path d="M40660 41000
L40620 40970
L40550 40970
L40470 41000
L40430 41040
L40400 41090
L40380 41190
L40380 41260
L40400 41350
L40430 41400
L40470 41450
L40550 41470
L40590 41470
L40660 41450
L40690 41420
L40690 41260
L40590 41260
" />
<path d="M40900 41470
L40900 40970
L41190 41470
L41190 40970
" />
<path d="M41430 41470
L41430 40970
L41550 40970
L41620 41000
L41660 41040
L41690 41090
L41710 41190
L41710 41260
L41690 41350
L41660 41400
L41620 41450
L41550 41470
L41430 41470
" />
</g>
</g>
<g style="fill:#008484; fill-opacity:0.0; 
stroke:#008484; stroke-width:0; stroke-opacity:1; 
stroke-linecap:round; stroke-linejoin:round;">
<g >
</g>
<g style="fill:#840000; fill-opacity:0.0; 
stroke:#840000; stroke-width:0; stroke-opacity:1; 
stroke-linecap:round; stroke-linejoin:round;">
</g>
<g style="fill:#840000; fill-opacity:0.0; 
stroke:#840000; stroke-width:200; stroke-opacity:1; 
stroke-linecap:round; stroke-linejoin:round;">
<path style="fill:#840000; fill-opacity:0.0; 
stroke:#840000; stroke-width:200; stroke-opacity:1; 
stroke-linecap:round; stroke-linejoin:round;fill:none"
d="M 40200,38300
41800,38300
" /> 
<path style="fill:#840000; fill-opacity:0.0; 
stroke:#840000; stroke-width:200; stroke-opacity:1; 
stroke-linecap:round; stroke-linejoin:round;fill:none"
d="M 40200,37700
41800,37700
" /> 
</g>
<g style="fill:#840000; fill-opacity:0.0; 
stroke:#840000; stroke-width:60; stroke-opacity:1; 
stroke-linecap:round; stroke-linejoin:round;">
<path d="M41000 37600
L41000 36500
" />
<path d="M41000 38400
L41000 39500
" />
</g>
<g style="fill:#008484; fill-opacity:0.0; 
stroke:#008484; stroke-width:60; stroke-opacity:1; 
stroke-linecap:round; stroke-linejoin:round;">
<text x="42670" y="37810"
textLength="1040" font-size="660" lengthAdjust="spacingAndGlyphs"
text-anchor="middle" opacity="0">C8</text>
<path d="M42580 37730
L42560 37760
L42490 37780
L42440 37780
L42370 37760
L42320 37710
L42300 37660
L42270 37570
L42270 37500
L42300 37400
L42320 37350
L42370 37310
L42440 37280
L42490 37280
L42560 37310
L42580 37330
" />
<path d="M42870 37500
L42820 37470
L42800 37450
L42770 37400
L42770 37380
L42800 37330
L42820 37310
L42870 37280
L42960 37280
L43010 37310
L43030 37330
L43060 37380
L43060 37400
L43030 37450
L43010 37470
L42960 37500
L42870 37500
L42820 37520
L42800 37540
L42770 37590
L42770 37690
L42800 37730
L42820 37760
L42870 37780
L42960 37780
L43010 37760
L43030 37730
L43060 37690
L43060 37590
L43030 37540
L43010 37520
L42960 37500
" />
<text x="43330" y="38720"
textLength="2370" font-size="660" lengthAdjust="spacingAndGlyphs"
text-anchor="middle" opacity="0">100nF</text>
<path d="M42550 38690
L42270 38690
" />
<path d="M42410 38690
L42410 38190
L42360 38260
L42310 38310
L42270 38330
" />
<path d="M42860 38190
L42910 38190
L42960 38220
L42980 38240
L43000 38290
L43030 38380
L43030 38500
L43000 38600
L42980 38640
L42960 38670
L42910 38690
L42860 38690
L42810 38670
L42790 38640
L42770 38600
L42740 38500
L42740 38380
L42770 38290
L42790 38240
L42810 38220
L42860 38190
" />
<path d="M43340 38190
L43380 38190
L43430 38220
L43460 38240
L43480 38290
L43500 38380
L43500 38500
L43480 38600
L43460 38640
L43430 38670
L43380 38690
L43340 38690
L43290 38670
L43270 38640
L43240 38600
L43220 38500
L43220 38380
L43240 38290
L43270 38240
L43290 38220
L43340 38190
" />
<path d="M43720 38360
L43720 38690
" />
<path d="M43720 38410
L43740 38380
L43790 38360
L43860 38360
L43910 38380
L43930 38430
L43930 38690
" />
<path d="M44340 38430
L44170 38430
" />
<path d="M44170 38690
L44170 38190
L44410 38190
" />
</g>
</g>
<g style="fill:#008484; fill-opacity:0.0; 
stroke:#008484; stroke-width:0; stroke-opacity:1; 
stroke-linecap:round; stroke-linejoin:round;">
<g >
</g>
<g style="fill:#840000; fill-opacity:0.0; 
stroke:#840000; stroke-width:0; stroke-opacity:1; 
stroke-linecap:round; stroke-linejoin:round;">
</g>
<g style="fill:#840000; fill-opacity:0.0; 
stroke:#840000; stroke-width:60; stroke-opacity:1; 
stroke-linecap:round; stroke-linejoin:round;">
<path style="fill:#840000; fill-opacity:0.0; 
stroke:#840000; stroke-width:60; stroke-opacity:1; 
stroke-linecap:round; stroke-linejoin:round;fill:none"
d="M 55700,34500
56000,34000
" /> 
<path style="fill:#840000; fill-opacity:0.0; 
stroke:#840000; stroke-width:60; stroke-opacity:1; 
stroke-linecap:round; stroke-linejoin:round;fill:none"
d="M 56000,35000
56000,34000
" /> 
<path style="fill:#840000; fill-opacity:0.0; 
stroke:#840000; stroke-width:60; stroke-opacity:1; 
stroke-linecap:round; stroke-linejoin:round;fill:none"
d="M 56000,34000
56300,34500
" /> 
</g>
<g style="fill:#008484; fill-opacity:0.0; 
stroke:#008484; stroke-width:60; stroke-opacity:1; 
stroke-linecap:round; stroke-linejoin:round;">
<text x="56150" y="33540"
textLength="1490" font-size="660" lengthAdjust="spacingAndGlyphs"
text-anchor="middle" opacity="0">VDD</text>
<path d="M55480 33010
L55650 33510
L55810 33010
" />
<path d="M55980 33510
L55980 33010
L56100 33010
L56170 33040
L56220 33080
L56240 33130
L56260 33230
L56260 33300
L56240 33390
L56220 33440
L56170 33490
L56100 33510
L55980 33510
" />
<path d="M56480 33510
L56480 33010
L56600 33010
L56670 33040
L56720 33080
L56740 33130
L56760 33230
L56760 33300
L56740 33390
L56720 33440
L56670 33490
L56600 33510
L56480 33510
" />
</g>
</g>
<g style="fill:#008484; fill-opacity:0.0; 
stroke:#008484; stroke-width:0; stroke-opacity:1; 
stroke-linecap:round; stroke-linejoin:round;">
<g >
</g>
<g style="fill:#840000; fill-opacity:0.0; 
stroke:#840000; stroke-width:0; stroke-opacity:1; 
stroke-linecap:round; stroke-linejoin:round;">
</g>
<g style="fill:#840000; fill-opacity:0.0; 
stroke:#840000; stroke-width:60; stroke-opacity:1; 
stroke-linecap:round; stroke-linejoin:round;">
<path style="fill:#840000; fill-opacity:0.0; 
stroke:#840000; stroke-width:60; stroke-opacity:1; 
stroke-linecap:round; stroke-linejoin:round;fill:none"
d="M 56000,41000
56000,41500
56500,41500
56000,42000
55500,41500
56000,41500
" /> 
</g>
<g style="fill:#008484; fill-opacity:0.0; 
stroke:#008484; stroke-width:60; stroke-opacity:1; 
stroke-linecap:round; stroke-linejoin:round;">
<text x="56050" y="43000"
textLength="1580" font-size="660" lengthAdjust="spacingAndGlyphs"
text-anchor="middle" opacity="0">GND</text>
<path d="M55660 42500
L55620 42470
L55550 42470
L55470 42500
L55430 42540
L55400 42590
L55380 42690
L55380 42760
L55400 42850
L55430 42900
L55470 42950
L55550 42970
L55590 42970
L55660 42950
L55690 42920
L55690 42760
L55590 42760
" />
<path d="M55900 42970
L55900 42470
L56190 42970
L56190 42470
" />
<path d="M56430 42970
L56430 42470
L56550 42470
L56620 42500
L56660 42540
L56690 42590
L56710 42690
L56710 42760
L56690 42850
L56660 42900
L56620 42950
L56550 42970
L56430 42970
" />
</g>
</g>
<g style="fill:#008484; fill-opacity:0.0; 
stroke:#008484; stroke-width:0; stroke-opacity:1; 
stroke-linecap:round; stroke-linejoin:round;">
<g >
</g>
<g style="fill:#840000; fill-opacity:0.0; 
stroke:#840000; stroke-width:0; stroke-opacity:1; 
stroke-linecap:round; stroke-linejoin:round;">
</g>
<g style="fill:#FFFFC2; fill-opacity:0.0; 
stroke:#FFFFC2; stroke-width:0; stroke-opacity:1; 
stroke-linecap:round; stroke-linejoin:round;">
</g>
<g style="fill:#FFFFC2; fill-opacity:0.6; 
stroke:#FFFFC2; stroke-width:0; stroke-opacity:1; 
stroke-linecap:round; stroke-linejoin:round;">
<rect x="54000" y="36000" width="4000" height="4000" rx="0" />
</g>
<g style="fill:#840000; fill-opacity:0.6; 
stroke:#840000; stroke-width:0; stroke-opacity:1; 
stroke-linecap:round; stroke-linejoin:round;">
</g>
<g style="fill:#840000; fill-opacity:0.0; 
stroke:#840000; stroke-width:100; stroke-opacity:1; 
stroke-linecap:round; stroke-linejoin:round;">
<rect x="54000" y="36000" width="4000" height="4000" rx="0" />
</g>
<g style="fill:#840000; fill-opacity:0.0; 
stroke:#840000; stroke-width:50; stroke-opacity:1; 
stroke-linecap:round; stroke-linejoin:round;">
<text x="56900" y="39810"
textLength="960" font-size="400" lengthAdjust="spacingAndGlyphs"
text-anchor="middle" opacity="0">RGB</text>
<path d="M56690 39790
L56590 39650
" />
<path d="M56520 39790
L56520 39490
L56630 39490
L56660 39510
L56670 39520
L56690 39550
L56690 39590
L56670 39620
L56660 39630
L56630 39650
L56520 39650
" />
<path d="M56970 39510
L56950 39490
L56900 39490
L56860 39510
L56830 39530
L56820 39560
L56800 39620
L56800 39660
L56820 39720
L56830 39750
L56860 39780
L56900 39790
L56930 39790
L56970 39780
L56990 39760
L56990 39660
L56930 39660
" />
<path d="M57220 39630
L57260 39650
L57270 39660
L57290 39690
L57290 39730
L57270 39760
L57260 39780
L57230 39790
L57120 39790
L57120 39490
L57220 39490
L57250 39510
L57260 39520
L57270 39550
L57270 39580
L57260 39610
L57250 39620
L57220 39630
L57120 39630
" />
</g>
<g style="fill:#840000; fill-opacity:0.0; 
stroke:#840000; stroke-width:100; stroke-opacity:1; 
stroke-linecap:round; stroke-linejoin:round;">
<rect x="54000" y="36000" width="4000" height="4000" rx="0" />
</g>
<g style="fill:#840000; fill-opacity:0.0; 
stroke:#840000; stroke-width:60; stroke-opacity:1; 
stroke-linecap:round; stroke-linejoin:round;">
<path style="fill:#840000; fill-opacity:0.0; 
stroke:#840000; stroke-width:60; stroke-opacity:1; 
stroke-linecap:round; stroke-linejoin:round;fill:none"
d="M 56500,39400
56700,39400
" /> 
<path style="fill:#840000; fill-opacity:0.0; 
stroke:#840000; stroke-width:60; stroke-opacity:1; 
stroke-linecap:round; stroke-linejoin:round;fill:none"
d="M 56500,39000
56700,39000
" /> 
<path style="fill:#840000; fill-opacity:0.0; 
stroke:#840000; stroke-width:60; stroke-opacity:1; 
stroke-linecap:round; stroke-linejoin:round;fill:none"
d="M 57850,39400
57050,39400
" /> 
<path style="fill:#840000; fill-opacity:0.0; 
stroke:#840000; stroke-width:60; stroke-opacity:1; 
stroke-linecap:round; stroke-linejoin:round;fill:none"
d="M 56900,39000
56500,39400
56500,39200
" /> 
<path style="fill:#840000; fill-opacity:0.0; 
stroke:#840000; stroke-width:60; stroke-opacity:1; 
stroke-linecap:round; stroke-linejoin:round;fill:none"
d="M 56900,38600
56500,39000
56500,38800
" /> 
<path style="fill:#840000; fill-opacity:0.0; 
stroke:#840000; stroke-width:60; stroke-opacity:1; 
stroke-linecap:round; stroke-linejoin:round;fill:none"
d="M 57450,38400
57450,39400
57450,39600
" /> 
<path style="fill:#840000; fill-opacity:0.0; 
stroke:#840000; stroke-width:60; stroke-opacity:1; 
stroke-linecap:round; stroke-linejoin:round;fill:none"
d="M 57850,38600
57050,38600
57450,39400
Z" /> 
<path d="M56000 36000
L56000 35000
" />
</g>
<g style="fill:#008484; fill-opacity:0.0; 
stroke:#008484; stroke-width:60; stroke-opacity:1; 
stroke-linecap:round; stroke-linejoin:round;">
<g transform="rotate(-90 56000 36100)">
<text x="56000" y="36350"
textLength="1480" font-size="660" lengthAdjust="spacingAndGlyphs"
text-anchor="end" opacity="0">VDD</text>
</g>
<path d="M55720 37510
L56220 37340
L55720 37170
" />
<path d="M56220 37010
L55720 37010
L55720 36890
L55750 36820
L55790 36770
L55840 36740
L55940 36720
L56010 36720
L56100 36740
L56150 36770
L56200 36820
L56220 36890
L56220 37010
" />
<path d="M56220 36510
L55720 36510
L55720 36390
L55750 36320
L55790 36270
L55840 36240
L55940 36220
L56010 36220
L56100 36240
L56150 36270
L56200 36320
L56220 36390
L56220 36510
" />
</g>
<g style="fill:#840000; fill-opacity:0.0; 
stroke:#840000; stroke-width:60; stroke-opacity:1; 
stroke-linecap:round; stroke-linejoin:round;">
<g transform="rotate(-90 55900 35500)">
<text x="55900" y="35500"
textLength="540" font-size="660" lengthAdjust="spacingAndGlyphs"
text-anchor="middle" opacity="0">1</text>
</g>
<path d="M55870 35350
L55870 35640
" />
<path d="M55870 35500
L55370 35500
L55440 35540
L55490 35590
L55510 35640
" />
<path d="M58000 38000
L59000 38000
" />
</g>
<g style="fill:#008484; fill-opacity:0.0; 
stroke:#008484; stroke-width:60; stroke-opacity:1; 
stroke-linecap:round; stroke-linejoin:round;">
<text x="57900" y="38250"
textLength="1990" font-size="660" lengthAdjust="spacingAndGlyphs"
text-anchor="end" opacity="0">DOUT</text>
<path d="M56060 38220
L56060 37720
L56170 37720
L56250 37750
L56290 37790
L56320 37840
L56340 37940
L56340 38010
L56320 38100
L56290 38150
L56250 38200
L56170 38220
L56060 38220
" />
<path d="M56650 37720
L56750 37720
L56790 37750
L56840 37790
L56870 37890
L56870 38050
L56840 38150
L56790 38200
L56750 38220
L56650 38220
L56600 38200
L56560 38150
L56530 38050
L56530 37890
L56560 37790
L56600 37750
L56650 37720
" />
<path d="M57080 37720
L57080 38130
L57100 38170
L57130 38200
L57170 38220
L57270 38220
L57320 38200
L57340 38170
L57370 38130
L57370 37720
" />
<path d="M57530 37720
L57820 37720
" />
<path d="M57670 38220
L57670 37720
" />
</g>
<g style="fill:#840000; fill-opacity:0.0; 
stroke:#840000; stroke-width:60; stroke-opacity:1; 
stroke-linecap:round; stroke-linejoin:round;">
<text x="58500" y="37900"
textLength="540" font-size="660" lengthAdjust="spacingAndGlyphs"
text-anchor="middle" opacity="0">2</text>
<path d="M58350 37420
L58380 37400
L58420 37370
L58540 37370
L58590 37400
L58610 37420
L58640 37470
L58640 37510
L58610 37590
L58330 37870
L58640 37870
" />
<path d="M56000 40000
L56000 41000
" />
</g>
<g style="fill:#008484; fill-opacity:0.0; 
stroke:#008484; stroke-width:60; stroke-opacity:1; 
stroke-linecap:round; stroke-linejoin:round;">
<g transform="rotate(-90 56000 39900)">
<text x="56000" y="40150"
textLength="1440" font-size="660" lengthAdjust="spacingAndGlyphs"
text-anchor="start" opacity="0">VSS</text>
</g>
<path d="M55720 39820
L56220 39650
L55720 39480
" />
<path d="M56200 39340
L56220 39270
L56220 39150
L56200 39100
L56170 39080
L56130 39060
L56080 39060
L56030 39080
L56010 39100
L55980 39150
L55960 39250
L55940 39290
L55910 39320
L55860 39340
L55820 39340
L55770 39320
L55750 39290
L55720 39250
L55720 39130
L55750 39060
" />
<path d="M56200 38870
L56220 38790
L56220 38670
L56200 38630
L56170 38600
L56130 38580
L56080 38580
L56030 38600
L56010 38630
L55980 38670
L55960 38770
L55940 38820
L55910 38840
L55860 38870
L55820 38870
L55770 38840
L55750 38820
L55720 38770
L55720 38650
L55750 38580
" />
</g>
<g style="fill:#840000; fill-opacity:0.0; 
stroke:#840000; stroke-width:60; stroke-opacity:1; 
stroke-linecap:round; stroke-linejoin:round;">
<g transform="rotate(-90 55900 40500)">
<text x="55900" y="40500"
textLength="540" font-size="660" lengthAdjust="spacingAndGlyphs"
text-anchor="middle" opacity="0">3</text>
</g>
<path d="M55370 40660
L55370 40350
L55560 40520
L55560 40450
L55590 40400
L55610 40380
L55660 40350
L55780 40350
L55820 40380
L55850 40400
L55870 40450
L55870 40590
L55850 40640
L55820 40660
" />
<path d="M54000 38000
L53000 38000
" />
</g>
<g style="fill:#008484; fill-opacity:0.0; 
stroke:#008484; stroke-width:60; stroke-opacity:1; 
stroke-linecap:round; stroke-linejoin:round;">
<text x="54100" y="38250"
textLength="1320" font-size="660" lengthAdjust="spacingAndGlyphs"
text-anchor="start" opacity="0">DIN</text>
<path d="M54240 38220
L54240 37720
L54360 37720
L54430 37750
L54480 37790
L54510 37840
L54530 37940
L54530 38010
L54510 38100
L54480 38150
L54430 38200
L54360 38220
L54240 38220
" />
<path d="M54740 38220
L54740 37720
" />
<path d="M54980 38220
L54980 37720
L55270 38220
L55270 37720
" />
</g>
<g style="fill:#840000; fill-opacity:0.0; 
stroke:#840000; stroke-width:60; stroke-opacity:1; 
stroke-linecap:round; stroke-linejoin:round;">
<text x="53500" y="37900"
textLength="540" font-size="660" lengthAdjust="spacingAndGlyphs"
text-anchor="middle" opacity="0">4</text>
<path d="M53590 37540
L53590 37870
" />
<path d="M53470 37350
L53350 37700
L53660 37700
" />
</g>
<g style="fill:#008484; fill-opacity:0.0; 
stroke:#008484; stroke-width:60; stroke-opacity:1; 
stroke-linecap:round; stroke-linejoin:round;">
<text x="58020" y="34770"
textLength="1040" font-size="660" lengthAdjust="spacingAndGlyphs"
text-anchor="middle" opacity="0">D8</text>
<path d="M57650 34740
L57650 34240
L57770 34240
L57840 34270
L57880 34310
L57910 34360
L57930 34460
L57930 34530
L57910 34620
L57880 34670
L57840 34720
L57770 34740
L57650 34740
" />
<path d="M58220 34460
L58170 34430
L58150 34410
L58120 34360
L58120 34340
L58150 34290
L58170 34270
L58220 34240
L58310 34240
L58360 34270
L58380 34290
L58410 34340
L58410 34360
L58380 34410
L58360 34430
L58310 34460
L58220 34460
L58170 34480
L58150 34500
L58120 34550
L58120 34650
L58150 34690
L58170 34720
L58220 34740
L58310 34740
L58360 34720
L58380 34690
L58410 34650
L58410 34550
L58380 34500
L58360 34480
L58310 34460
" />
<text x="58250" y="35770"
textLength="3510" font-size="660" lengthAdjust="spacingAndGlyphs"
text-anchor="middle" opacity="0">WS2812C</text>
<path d="M56590 35240
L56710 35740
L56800 35380
L56900 35740
L57020 35240
" />
<path d="M57190 35720
L57260 35740
L57380 35740
L57420 35720
L57450 35690
L57470 35650
L57470 35600
L57450 35550
L57420 35530
L57380 35500
L57280 35480
L57230 35460
L57210 35430
L57190 35380
L57190 35340
L57210 35290
L57230 35270
L57280 35240
L57400 35240
L57470 35270
" />
<path d="M57660 35290
L57690 35270
L57730 35240
L57850 35240
L57900 35270
L57920 35290
L57950 35340
L57950 35380
L57920 35460
L57640 35740
L57950 35740
" />
<path d="M58230 35460
L58190 35430
L58160 35410
L58140 35360
L58140 35340
L58160 35290
L58190 35270
L58230 35240
L58330 35240
L58380 35270
L58400 35290
L58420 35340
L58420 35360
L58400 35410
L58380 35430
L58330 35460
L58230 35460
L58190 35480
L58160 35500
L58140 35550
L58140 35650
L58160 35690
L58190 35720
L58230 35740
L58330 35740
L58380 35720
L58400 35690
L58420 35650
L58420 35550
L58400 35500
L58380 35480
L58330 35460
" />
<path d="M58900 35740
L58610 35740
" />
<path d="M58760 35740
L58760 35240
L58710 35310
L58660 35360
L58610 35380
" />
<path d="M59090 35290
L59110 35270
L59160 35240
L59280 35240
L59330 35270
L59350 35290
L59380 35340
L59380 35380
L59350 35460
L59070 35740
L59380 35740
" />
<path d="M59880 35690
L59850 35720
L59780 35740
L59730 35740
L59660 35720
L59610 35670
L59590 35620
L59570 35530
L59570 35460
L59590 35360
L59610 35310
L59660 35270
L59730 35240
L59780 35240
L59850 35270
L59880 35290
" />
</g>
</g>
<g style="fill:#008484; fill-opacity:0.0; 
stroke:#008484; stroke-width:60; stroke-opacity:1; 
stroke-linecap:round; stroke-linejoin:round;">
</g>
<g style="fill:#008400; fill-opacity:0.0; 
stroke:#008400; stroke-width:60; stroke-opacity:1; 
stroke-linecap:round; stroke-linejoin:round;">
<path d="M75500 36000
L75500 37000
" />
<path d="M75500 38000
L75500 39000
" />
<path d="M77000 36000
L77000 32500
" />
<path d="M75500 36000
L77000 36000
" />
<path d="M75500 39000
L81500 39000
" />
</g>
<g style="fill:#848400; fill-opacity:0.0; 
stroke:#848400; stroke-width:60; stroke-opacity:1; 
stroke-linecap:round; stroke-linejoin:round;">
<text x="59600" y="38250"
textLength="1990" font-size="660" lengthAdjust="spacingAndGlyphs"
text-anchor="start" opacity="0">DOUT</text>
<path d="M59740 38220
L59740 37720
L59860 37720
L59930 37750
L59980 37790
L60010 37840
L60030 37940
L60030 38010
L60010 38100
L59980 38150
L59930 38200
L59860 38220
L59740 38220
" />
<path d="M60340 37720
L60430 37720
L60480 37750
L60530 37790
L60550 37890
L60550 38050
L60530 38150
L60480 38200
L60430 38220
L60340 38220
L60290 38200
L60240 38150
L60220 38050
L60220 37890
L60240 37790
L60290 37750
L60340 37720
" />
<path d="M60770 37720
L60770 38130
L60790 38170
L60820 38200
L60860 38220
L60960 38220
L61010 38200
L61030 38170
L61050 38130
L61050 37720
" />
<path d="M61220 37720
L61510 37720
" />
<path d="M61360 38220
L61360 37720
" />
</g>
<g style="fill:#848400; fill-opacity:0.0; 
stroke:#848400; stroke-width:100; stroke-opacity:1; 
stroke-linecap:round; stroke-linejoin:round;">
<path style="fill:#848400; fill-opacity:0.0; 
stroke:#848400; stroke-width:100; stroke-opacity:1; 
stroke-linecap:round; stroke-linejoin:round;fill:none"
d="M 59000,38000
59250,38250
59500,38250
59500,37750
59250,37750
Z" /> 
</g>
<g style="fill:#848400; fill-opacity:0.0; 
stroke:#848400; stroke-width:60; stroke-opacity:1; 
stroke-linecap:round; stroke-linejoin:round;">
<text x="52400" y="38250"
textLength="1320" font-size="660" lengthAdjust="spacingAndGlyphs"
text-anchor="end" opacity="0">DIN</text>
<path d="M51220 38220
L51220 37720
L51340 37720
L51410 37750
L51460 37790
L51480 37840
L51510 37940
L51510 38010
L51480 38100
L51460 38150
L51410 38200
L51340 38220
L51220 38220
" />
<path d="M51720 38220
L51720 37720
" />
<path d="M51960 38220
L51960 37720
L52250 38220
L52250 37720
" />
</g>
<g style="fill:#848400; fill-opacity:0.0; 
stroke:#848400; stroke-width:100; stroke-opacity:1; 
stroke-linecap:round; stroke-linejoin:round;">
<path style="fill:#848400; fill-opacity:0.0; 
stroke:#848400; stroke-width:100; stroke-opacity:1; 
stroke-linecap:round; stroke-linejoin:round;fill:none"
d="M 53000,38000
52750,37750
52500,37750
52500,38250
52750,38250
Z" /> 
</g>
<g style="fill:#848400; fill-opacity:0.0; 
stroke:#848400; stroke-width:60; stroke-opacity:1; 
stroke-linecap:round; stroke-linejoin:round;">
<text x="82100" y="39250"
textLength="1460" font-size="660" lengthAdjust="spacingAndGlyphs"
text-anchor="start" opacity="0">BTN</text>
<path d="M82410 38960
L82480 38980
L82510 39010
L82530 39050
L82530 39130
L82510 39170
L82480 39200
L82430 39220
L82240 39220
L82240 38720
L82410 38720
L82460 38750
L82480 38770
L82510 38820
L82510 38860
L82480 38910
L82460 38940
L82410 38960
L82240 38960
" />
<path d="M82670 38720
L82960 38720
" />
<path d="M82820 39220
L82820 38720
" />
<path d="M83130 39220
L83130 38720
L83410 39220
L83410 38720
" />
</g>
<g style="fill:#848400; fill-opacity:0.0; 
stroke:#848400; stroke-width:100; stroke-opacity:1; 
stroke-linecap:round; stroke-linejoin:round;">
<path style="fill:#848400; fill-opacity:0.0; 
stroke:#848400; stroke-width:100; stroke-opacity:1; 
stroke-linecap:round; stroke-linejoin:round;fill:none"
d="M 81500,39000
81750,39250
82000,39250
82000,38750
81750,38750
Z" /> 
</g>
<g style="fill:#848400; fill-opacity:0.0; 
stroke:#848400; stroke-width:60; stroke-opacity:1; 
stroke-linecap:round; stroke-linejoin:round;">
</g>
<g style="fill:#0000C2; fill-opacity:0.0; 
stroke:#0000C2; stroke-width:60; stroke-opacity:1; 
stroke-linecap:round; stroke-linejoin:round;">
<text x="31000" y="36780"
textLength="5960" font-size="660" lengthAdjust="spacingAndGlyphs"
text-anchor="start" opacity="0">Decoupling Cap</text>
<path d="M31140 36750
L31140 36250
L31260 36250
L31330 36280
L31380 36320
L31410 36370
L31430 36470
L31430 36540
L31410 36630
L31380 36680
L31330 36730
L31260 36750
L31140 36750
" />
<path d="M31830 36730
L31790 36750
L31690 36750
L31640 36730
L31620 36680
L31620 36490
L31640 36440
L31690 36420
L31790 36420
L31830 36440
L31860 36490
L31860 36540
L31620 36580
" />
<path d="M32290 36730
L32240 36750
L32140 36750
L32100 36730
L32070 36700
L32050 36660
L32050 36510
L32070 36470
L32100 36440
L32140 36420
L32240 36420
L32290 36440
" />
<path d="M32570 36750
L32530 36730
L32500 36700
L32480 36660
L32480 36510
L32500 36470
L32530 36440
L32570 36420
L32640 36420
L32690 36440
L32720 36470
L32740 36510
L32740 36660
L32720 36700
L32690 36730
L32640 36750
L32570 36750
" />
<path d="M33170 36420
L33170 36750
" />
<path d="M32950 36420
L32950 36680
L32980 36730
L33030 36750
L33100 36750
L33140 36730
L33170 36700
" />
<path d="M33410 36420
L33410 36920
" />
<path d="M33410 36440
L33450 36420
L33550 36420
L33600 36440
L33620 36470
L33640 36510
L33640 36660
L33620 36700
L33600 36730
L33550 36750
L33450 36750
L33410 36730
" />
<path d="M33930 36750
L33880 36730
L33860 36680
L33860 36250
" />
<path d="M34120 36750
L34120 36420
" />
<path d="M34120 36250
L34100 36280
L34120 36300
L34140 36280
L34120 36250
L34120 36300
" />
<path d="M34360 36420
L34360 36750
" />
<path d="M34360 36470
L34380 36440
L34430 36420
L34500 36420
L34550 36440
L34570 36490
L34570 36750
" />
<path d="M35030 36420
L35030 36820
L35000 36870
L34980 36890
L34930 36920
L34860 36920
L34810 36890
" />
<path d="M35030 36730
L34980 36750
L34880 36750
L34830 36730
L34810 36700
L34790 36660
L34790 36510
L34810 36470
L34830 36440
L34880 36420
L34980 36420
L35030 36440
" />
<path d="M35930 36700
L35910 36730
L35830 36750
L35790 36750
L35720 36730
L35670 36680
L35640 36630
L35620 36540
L35620 36470
L35640 36370
L35670 36320
L35720 36280
L35790 36250
L35830 36250
L35910 36280
L35930 36300
" />
<path d="M36360 36750
L36360 36490
L36330 36440
L36290 36420
L36190 36420
L36140 36440
" />
<path d="M36360 36730
L36310 36750
L36190 36750
L36140 36730
L36120 36680
L36120 36630
L36140 36580
L36190 36560
L36310 36560
L36360 36540
" />
<path d="M36600 36420
L36600 36920
" />
<path d="M36600 36440
L36640 36420
L36740 36420
L36790 36440
L36810 36470
L36830 36510
L36830 36660
L36810 36700
L36790 36730
L36740 36750
L36640 36750
L36600 36730
" />
<text x="31000" y="37590"
textLength="5610" font-size="660" lengthAdjust="spacingAndGlyphs"
text-anchor="start" opacity="0">from WS2812C</text>
<path d="M31070 37230
L31260 37230
" />
<path d="M31140 37560
L31140 37130
L31170 37090
L31220 37060
L31260 37060
" />
<path d="M31430 37560
L31430 37230
" />
<path d="M31430 37320
L31450 37280
L31480 37250
L31530 37230
L31570 37230
" />
<path d="M31810 37560
L31760 37540
L31740 37510
L31720 37470
L31720 37320
L31740 37280
L31760 37250
L31810 37230
L31880 37230
L31930 37250
L31950 37280
L31980 37320
L31980 37470
L31950 37510
L31930 37540
L31880 37560
L31810 37560
" />
<path d="M32190 37560
L32190 37230
" />
<path d="M32190 37280
L32220 37250
L32260 37230
L32330 37230
L32380 37250
L32410 37300
L32410 37560
" />
<path d="M32410 37300
L32430 37250
L32480 37230
L32550 37230
L32600 37250
L32620 37300
L32620 37560
" />
<path d="M33190 37060
L33310 37560
L33410 37200
L33500 37560
L33620 37060
" />
<path d="M33790 37540
L33860 37560
L33980 37560
L34030 37540
L34050 37510
L34070 37470
L34070 37420
L34050 37370
L34030 37350
L33980 37320
L33880 37300
L33830 37280
L33810 37250
L33790 37200
L33790 37160
L33810 37110
L33830 37090
L33880 37060
L34000 37060
L34070 37090
" />
<path d="M34260 37110
L34290 37090
L34330 37060
L34450 37060
L34500 37090
L34530 37110
L34550 37160
L34550 37200
L34530 37280
L34240 37560
L34550 37560
" />
<path d="M34830 37280
L34790 37250
L34760 37230
L34740 37180
L34740 37160
L34760 37110
L34790 37090
L34830 37060
L34930 37060
L34980 37090
L35000 37110
L35030 37160
L35030 37180
L35000 37230
L34980 37250
L34930 37280
L34830 37280
L34790 37300
L34760 37320
L34740 37370
L34740 37470
L34760 37510
L34790 37540
L34830 37560
L34930 37560
L34980 37540
L35000 37510
L35030 37470
L35030 37370
L35000 37320
L34980 37300
L34930 37280
" />
<path d="M35500 37560
L35220 37560
" />
<path d="M35360 37560
L35360 37060
L35310 37130
L35260 37180
L35220 37200
" />
<path d="M35690 37110
L35720 37090
L35760 37060
L35880 37060
L35930 37090
L35950 37110
L35980 37160
L35980 37200
L35950 37280
L35670 37560
L35980 37560
" />
<path d="M36480 37510
L36450 37540
L36380 37560
L36330 37560
L36260 37540
L36220 37490
L36190 37440
L36170 37350
L36170 37280
L36190 37180
L36220 37130
L36260 37090
L36330 37060
L36380 37060
L36450 37090
L36480 37110
" />
<text x="31000" y="38400"
textLength="3750" font-size="660" lengthAdjust="spacingAndGlyphs"
text-anchor="start" opacity="0">Datasheet</text>
<path d="M31140 38370
L31140 37870
L31260 37870
L31330 37900
L31380 37940
L31410 37990
L31430 38090
L31430 38160
L31410 38250
L31380 38300
L31330 38350
L31260 38370
L31140 38370
" />
<path d="M31860 38370
L31860 38110
L31830 38060
L31790 38040
L31690 38040
L31640 38060
" />
<path d="M31860 38350
L31810 38370
L31690 38370
L31640 38350
L31620 38300
L31620 38250
L31640 38200
L31690 38180
L31810 38180
L31860 38160
" />
<path d="M32030 38040
L32220 38040
" />
<path d="M32100 37870
L32100 38300
L32120 38350
L32170 38370
L32220 38370
" />
<path d="M32600 38370
L32600 38110
L32570 38060
L32530 38040
L32430 38040
L32380 38060
" />
<path d="M32600 38350
L32550 38370
L32430 38370
L32380 38350
L32360 38300
L32360 38250
L32380 38200
L32430 38180
L32550 38180
L32600 38160
" />
<path d="M32810 38350
L32860 38370
L32950 38370
L33000 38350
L33030 38300
L33030 38280
L33000 38230
L32950 38200
L32880 38200
L32830 38180
L32810 38130
L32810 38110
L32830 38060
L32880 38040
L32950 38040
L33000 38060
" />
<path d="M33240 38370
L33240 37870
" />
<path d="M33450 38370
L33450 38110
L33430 38060
L33380 38040
L33310 38040
L33260 38060
L33240 38090
" />
<path d="M33880 38350
L33830 38370
L33740 38370
L33690 38350
L33670 38300
L33670 38110
L33690 38060
L33740 38040
L33830 38040
L33880 38060
L33910 38110
L33910 38160
L33670 38200
" />
<path d="M34310 38350
L34260 38370
L34170 38370
L34120 38350
L34100 38300
L34100 38110
L34120 38060
L34170 38040
L34260 38040
L34310 38060
L34330 38110
L34330 38160
L34100 38200
" />
<path d="M34480 38040
L34670 38040
" />
<path d="M34550 37870
L34550 38300
L34570 38350
L34620 38370
L34670 38370
" />
<text x="79000" y="33350"
textLength="3420" font-size="660" lengthAdjust="spacingAndGlyphs"
text-anchor="start" opacity="0">Footprint</text>
<path d="M79310 33060
L79140 33060
" />
<path d="M79140 33320
L79140 32820
L79380 32820
" />
<path d="M79640 33320
L79600 33300
L79570 33270
L79550 33230
L79550 33080
L79570 33040
L79600 33010
L79640 32990
L79720 32990
L79760 33010
L79790 33040
L79810 33080
L79810 33230
L79790 33270
L79760 33300
L79720 33320
L79640 33320
" />
<path d="M80100 33320
L80050 33300
L80030 33270
L80000 33230
L80000 33080
L80030 33040
L80050 33010
L80100 32990
L80170 32990
L80220 33010
L80240 33040
L80260 33080
L80260 33230
L80240 33270
L80220 33300
L80170 33320
L80100 33320
" />
<path d="M80410 32990
L80600 32990
" />
<path d="M80480 32820
L80480 33250
L80500 33300
L80550 33320
L80600 33320
" />
<path d="M80760 32990
L80760 33490
" />
<path d="M80760 33010
L80810 32990
L80910 32990
L80950 33010
L80980 33040
L81000 33080
L81000 33230
L80980 33270
L80950 33300
L80910 33320
L80810 33320
L80760 33300
" />
<path d="M81220 33320
L81220 32990
" />
<path d="M81220 33080
L81240 33040
L81260 33010
L81310 32990
L81360 32990
" />
<path d="M81530 33320
L81530 32990
" />
<path d="M81530 32820
L81500 32850
L81530 32870
L81550 32850
L81530 32820
L81530 32870
" />
<path d="M81760 32990
L81760 33320
" />
<path d="M81760 33040
L81790 33010
L81830 32990
L81910 32990
L81950 33010
L81980 33060
L81980 33320
" />
<path d="M82140 32990
L82330 32990
" />
<path d="M82220 32820
L82220 33250
L82240 33300
L82290 33320
L82330 33320
" />
<text x="79000" y="34160"
textLength="3490" font-size="660" lengthAdjust="spacingAndGlyphs"
text-anchor="start" opacity="0"></text>
<path d="M79100 33960
L79530 33960
" />
<path d="M79670 33960
L80100 33960
" />
<path d="M80240 33960
L80670 33960
" />
<path d="M80810 33960
L81240 33960
" />
<path d="M81380 33960
L81810 33960
" />
<path d="M81950 33960
L82380 33960
" />
<text x="79000" y="34970"
textLength="3960" font-size="660" lengthAdjust="spacingAndGlyphs"
text-anchor="start" opacity="0">| 2 | 1 |</text>
<path d="M79260 35110
L79260 34390
" />
<path d="M79980 34490
L80000 34470
L80050 34440
L80170 34440
L80220 34470
L80240 34490
L80260 34540
L80260 34580
L80240 34660
L79950 34940
L80260 34940
" />
<path d="M80980 35110
L80980 34390
" />
<path d="M81980 34940
L81690 34940
" />
<path d="M81830 34940
L81830 34440
L81790 34510
L81740 34560
L81690 34580
" />
<path d="M82690 35110
L82690 34390
" />
<text x="79000" y="35780"
textLength="3490" font-size="660" lengthAdjust="spacingAndGlyphs"
text-anchor="start" opacity="0"></text>
<path d="M79100 35580
L79530 35580
" />
<path d="M79670 35580
L80100 35580
" />
<path d="M80240 35580
L80670 35580
" />
<path d="M80810 35580
L81240 35580
" />
<path d="M81380 35580
L81810 35580
" />
<path d="M81950 35580
L82380 35580
" />
<text x="79000" y="36590"
textLength="3960" font-size="660" lengthAdjust="spacingAndGlyphs"
text-anchor="start" opacity="0">| 4 | 3 |</text>
<path d="M79260 36730
L79260 36010
" />
<path d="M80220 36230
L80220 36560
" />
<path d="M80100 36040
L79980 36390
L80290 36390
" />
<path d="M80980 36730
L80980 36010
" />
<path d="M81670 36060
L81980 36060
L81810 36250
L81880 36250
L81930 36280
L81950 36300
L81980 36350
L81980 36470
L81950 36510
L81930 36540
L81880 36560
L81740 36560
L81690 36540
L81670 36510
" />
<path d="M82690 36730
L82690 36010
" />
<text x="79000" y="37400"
textLength="3490" font-size="660" lengthAdjust="spacingAndGlyphs"
text-anchor="start" opacity="0"></text>
<path d="M79100 37200
L79530 37200
" />
<path d="M79670 37200
L80100 37200
" />
<path d="M80240 37200
L80670 37200
" />
<path d="M80810 37200
L81240 37200
" />
<path d="M81380 37200
L81810 37200
" />
<path d="M81950 37200
L82380 37200
" />
</g>
<g style="fill:#0000C2; fill-opacity:0.0; 
stroke:#0000C2; stroke-width:0; stroke-opacity:1; 
stroke-linecap:round; stroke-linejoin:round;">
</g>
<g style="fill:#008400; fill-opacity:0.0; 
stroke:#008400; stroke-width:0; stroke-opacity:1; 
stroke-linecap:round; stroke-linejoin:round;">
</g>
<g style="fill:#008400; fill-opacity:1.0; 
stroke:#008400; stroke-width:100; stroke-opacity:1; 
stroke-linecap:round; stroke-linejoin:round;">
<circle cx="75500" cy="36000" r="200" /> 
</g>
<g style="fill:#008400; fill-opacity:1.0; 
stroke:#008400; stroke-width:0; stroke-opacity:1; 
stroke-linecap:round; stroke-linejoin:round;">
</g>
<g style="fill:#008400; fill-opacity:1.0; 
stroke:#008400; stroke-width:100; stroke-opacity:1; 
stroke-linecap:round; stroke-linejoin:round;">
<circle cx="75500" cy="39000" r="200" /> 
</g> 
</svg>
